<?xml version="1.0" encoding="UTF-8" standalone="no"?><svg xmlns="http://www.w3.org/2000/svg" xmlns:xlink="http://www.w3.org/1999/xlink" fill="#25365a" height="275.1" preserveAspectRatio="xMidYMid meet" version="1" viewBox="-599.9 1029.6 2390.4 275.1" width="2390.4" zoomAndPan="magnify"><g><g id="change1_1"><path d="M346.06302,1110.0743C346.4071,1110.2169,346.76373,1110.319,347.12592,1110.3802L347.12592,1110.3802Q346.61908,1110.3123,346.05957,1110.0743 Z M1411.9403,1029.6075Q1386.471,1029.6075,1357.6398,1033.081C1357.5984,1033.086,1357.5568,1033.0917,1357.5156,1033.0977Q1301.3876,1041.3135,1248.4229,1062.3798C1248.327,1062.4178,1248.2324,1062.459,1248.1392,1062.503L1023.90607,1168.4572L1023.8959,1168.4572Q955.9219,1190.7543,895.4826,1190.825L895.36865,1190.8264Q892.86816,1190.8872,890.34125,1190.8872Q849.4916,1190.8872,801.72754,1174.987L801.71954,1174.987Q614.38965,1091.0211,579.7451,1085.5084L579.7393,1085.5084Q528.63745,1072.6062,481.06537,1072.6062Q467.7585,1072.6062,454.72784,1073.6157L454.7233,1073.6157Q407.1905,1075.9365,347.0525,1100.577L347.049,1100.577Q346.66058,1100.6074,346.25455,1100.6797L346.2542,1100.6798Q330.20712,1103.5363,76.89673,1247.5034L76.895966,1247.5034Q2.1829965,1280.1504,-56.95036,1289.7388L-56.950825,1289.7388Q-89.13772,1294.8662,-119.97628,1294.8662Q-152.85173,1294.8662,-184.19485,1289.0391C-184.46333,1288.9891,-184.7356,1288.9617,-185.00864,1288.9569Q-202.54913,1288.652,-376.7234,1230.5168C-376.83582,1230.4794,-376.94952,1230.4459,-377.06436,1230.4166Q-415.68436,1220.5598,-446.27975,1218.8746C-446.33856,1218.8713,-446.39832,1218.8691,-446.4572,1218.868Q-451.87408,1218.7655,-457.12366,1218.7655Q-559.06055,1218.7655,-597.92035,1257.422C-599.8468,1259.3384,-599.855,1262.4536,-597.9386,1264.3801C-596.9771,1265.3467,-595.71387,1265.8303,-594.4504,1265.8303C-593.1955,1265.8303,-591.94037,1265.3533,-590.9804,1264.3983Q-554.99835,1228.6045,-457.26254,1228.6045Q-452.08057,1228.6045,-446.725,1228.7051L-446.72946,1228.7051Q-417.18933,1230.3438,-379.65442,1239.9114L-379.6582,1239.9114Q-206.19775,1297.805,-185.62856,1298.7809L-185.6304,1298.7809Q-153.56422,1304.7074,-119.97774,1304.7074Q-88.35697,1304.7074,-55.38865,1299.4543L-55.375324,1299.4521Q5.080822,1289.6492,81.07807,1256.4147C81.23529,1256.346,81.388664,1256.2692,81.53785,1256.1843Q330.86295,1114.4795,347.63937,1110.4397L347.64285,1110.4397C347.74393,1110.4459,347.84518,1110.4491,347.94644,1110.4491C348.58264,1110.4491,349.21967,1110.3258,349.82092,1110.078Q409.0314,1085.6803,455.2826,1083.4406C455.33002,1083.4382,455.37827,1083.4352,455.4256,1083.4315Q468.10458,1082.4468,481.06186,1082.4468Q527.512,1082.4468,577.53864,1095.1019C577.69086,1095.1404,577.84485,1095.1716,578.00006,1095.1954Q610.9055,1100.2378,797.8955,1184.0566C798.0442,1184.1233,798.19617,1184.1826,798.3507,1184.2341Q847.7806,1200.7275,890.3426,1200.7275Q892.9592,1200.7275,895.5499,1200.6653L895.54095,1200.6653Q957.67267,1200.5839,1027.2911,1177.6995C1027.4841,1177.636,1027.673,1177.5607,1027.8567,1177.4739L1252.1367,1071.4976L1252.1243,1071.4976Q1303.9336,1050.8995,1358.8276,1042.8508L1358.8168,1042.8508Q1387.0758,1039.4463,1411.9464,1039.4463Q1441.4117,1039.4463,1466.121,1044.225C1466.38,1044.275,1466.6428,1044.3043,1466.9065,1044.3123Q1486.1222,1044.8932,1608.4093,1087.7943C1608.5205,1087.8334,1608.6324,1087.8683,1608.7462,1087.8992Q1641.3674,1096.7755,1660.583,1098.1887L1660.5688,1098.1887Q1670.9268,1099.19,1681.7527,1099.19Q1729.6016,1099.19,1786.5929,1079.6312C1789.1631,1078.7491,1790.5316,1075.9507,1789.6495,1073.3805C1788.949,1071.3394,1787.0399,1070.056,1784.9962,1070.056C1784.4666,1070.056,1783.9279,1070.1423,1783.3988,1070.3239Q1727.9587,1089.3502,1681.7626,1089.3502Q1671.3566,1089.3502,1661.4197,1088.3848L1661.3047,1088.375Q1643.1057,1087.0365,1611.5706,1078.4695L1611.5544,1078.4695Q1489.2043,1035.5493,1467.6414,1034.4938L1467.6267,1034.4938Q1442.1481,1029.6075,1411.9403,1029.6075 Z"/></g></g></svg>