<?xml version="1.0" encoding="UTF-8" standalone="no"?><svg xmlns="http://www.w3.org/2000/svg" xmlns:xlink="http://www.w3.org/1999/xlink" fill="#ffffff" height="644" preserveAspectRatio="xMidYMid meet" version="1" viewBox="143.2 189.8 708.7 644.0" width="708.7" zoomAndPan="magnify"><g id="change1_1"><path d="M 289.277344 317.003906 C 289.277344 291.828125 309.691406 271.414062 334.867188 271.414062 C 360.046875 271.414062 380.457031 291.828125 380.457031 317.003906 C 380.457031 342.183594 360.046875 362.59375 334.867188 362.59375 C 309.691406 362.59375 289.277344 342.183594 289.277344 317.003906"/><path d="M 289.367188 319.261719 C 289.367188 319.261719 280.796875 226.828125 366.464844 192.011719 C 371.902344 189.800781 376.09375 197.015625 371.554688 200.734375 C 348.851562 219.359375 324.3125 254.28125 329.398438 317.003906 C 331.929688 348.246094 289.367188 319.261719 289.367188 319.261719"/><path d="M 151.644531 317.003906 C 151.644531 291.828125 172.054688 271.414062 197.230469 271.414062 C 222.410156 271.414062 242.820312 291.828125 242.820312 317.003906 C 242.820312 342.183594 222.410156 362.59375 197.230469 362.59375 C 172.054688 362.59375 151.644531 342.183594 151.644531 317.003906"/><path d="M 151.730469 319.261719 C 151.730469 319.261719 143.160156 226.828125 228.832031 192.011719 C 234.269531 189.800781 238.457031 197.015625 233.917969 200.734375 C 211.21875 219.359375 186.675781 254.28125 191.761719 317.003906 C 194.296875 348.246094 151.730469 319.261719 151.730469 319.261719"/><path d="M 276.882812 833.828125 L 255.0625 833.828125 L 255.0625 410.90625 L 276.882812 410.90625 L 276.882812 833.828125"/><path d="M 851.878906 289.796875 L 428.949219 289.796875 L 428.949219 267.976562 L 851.878906 267.976562 L 851.878906 289.796875"/></g></svg>