<?xml version="1.0" encoding="UTF-8" standalone="no"?><svg xmlns="http://www.w3.org/2000/svg" xmlns:xlink="http://www.w3.org/1999/xlink" fill="#000000" height="244.4" preserveAspectRatio="xMidYMid meet" version="1" viewBox="-0.6 -2.3 290.9 244.4" width="290.9" zoomAndPan="magnify"><g data-name="Layer 2"><g data-name="Layer 1" id="change1_1"><path d="M191.83,200.93c7.21-5.44,14.65-10.62,21.59-16.39,11.22-9.31,22.1-19,33.15-28.54a53.55,53.55,0,0,1,4.65-3.38c.14-.1.6.09.79.28s.29.61.18.76a46.42,46.42,0,0,1-4.66,6.15c-6.5,6.33-12.91,12.79-19.83,18.65-21.77,18.44-44,36.32-67.61,52.38a17.7,17.7,0,0,0-6,6.18c-2.12,3.89-5.83,5.12-9.57,3.36a23,23,0,0,1-4.75-3.34c-4.48-3.73-8.87-7.59-13.35-11.32C114.73,216,103,206.29,90.17,198c-14.45-9.32-27.57-20.49-40.4-31.94a219.73,219.73,0,0,1-33.26-38A92.54,92.54,0,0,1,2,96.49a66.07,66.07,0,0,1-.31-30.82c4.27-18.52,15.68-30.25,34.49-34,8.57-1.7,17.1-3.4,25.59-5.5a39.05,39.05,0,0,1,25.68,2.73c6.46,2.93,12.62,6.54,18.91,9.87a21.71,21.71,0,0,0,2.52,1.43,1.91,1.91,0,0,0,1.69-.24,1.75,1.75,0,0,0,.06-1.64c-10.43-17.29-32.62-25-51.8-18-1.82.67-3.6,1.45-5.42,2.11-.19.07-.62-.22-.78-.45a.82.82,0,0,1,.15-.76,12.63,12.63,0,0,1,3-2.4c8.43-3.69,17.12-5.77,26.42-4.18,15.13,2.57,27.14,9.74,35.87,22.66a166.27,166.27,0,0,1,15.41,29.16,36.43,36.43,0,0,0,1.49,3.58c.77,1.38,1.75,2.63,2.64,3.94a18,18,0,0,0,2.23-3.78A172.7,172.7,0,0,1,152,40.63C158.53,28.08,167,17.15,179.3,9.68a82.12,82.12,0,0,1,13-6.43C206.67-2.27,220.44-.82,233,8.09a34.08,34.08,0,0,0,14.21,5.63C266,17.11,278.74,28,286.06,45.4a34.25,34.25,0,0,1,2.79,11.25c1.43,27.58-4.27,53.45-19.42,76.89a13.12,13.12,0,0,1-1.77,2.28,5.35,5.35,0,0,1-1.62.74c-.22-.57-.74-1.22-.61-1.69a15.22,15.22,0,0,1,1.47-3.54c8.87-15.75,13.91-32.74,16.32-50.56.65-4.8,1.15-9.63,1.54-14.46.45-5.59-1.21-10.9-2.63-16.21-.23-.86-1.11-1.55-1.68-2.32a7.79,7.79,0,0,0-.59,2.36c1,11.4-.18,22.66-2.3,33.84-2,10.64-6.55,20.31-11.9,29.63C253.47,134.84,238.26,153.76,221,171c-8.69,8.71-18,16.83-27,25.26-1.16,1.09-2.12,2.4-3.18,3.6-2.27,1.78-4.56,3.53-6.77,5.37-.36.31-.34,1.07-.49,1.62.56-.09,1.29,0,1.66-.3C187.51,204.76,189.66,202.83,191.83,200.93ZM66.5,154c.75,1.19,1.49,2.4,2.28,3.56.07.1.57,0,.75-.1s.36-.59.28-.68c-.92-1.08-1.89-2.13-2.85-3.18a30.18,30.18,0,0,0-1.73-4.45c-3.94-6.71-8.11-13.28-12-20C46.82,117.85,41.15,106.24,39,93.23c-1.27-7.55-.7-14.81,2.53-21.77a1.81,1.81,0,0,1,1.57-.63,1.87,1.87,0,0,1,1.2,1.2,9.42,9.42,0,0,1-.07,2.9c-1.84,12.32.91,23.91,6.11,34.93,10.14,21.46,22.17,41.8,37.6,59.94,14.51,17.06,31,32.27,47,47.87a27.31,27.31,0,0,0,4.46,3.74c3.29,2,6.72,3.81,10.1,5.69,2.33-2.21,4.72-4.38,7-6.65a45.84,45.84,0,0,0,4.51-5c17.47-23.77,35-47.49,52.26-71.38,10.27-14.2,19.46-29.09,26.43-45.24a108.33,108.33,0,0,0,9-40.54c.31-12.14-3.07-23-10.92-32.38a13.36,13.36,0,0,0-10-5c-9.71-.76-18.5,2-27.27,5.54a45.29,45.29,0,0,0-19.23,14.36,97,97,0,0,0-15.38,28,270.21,270.21,0,0,0-8.67,27.81,87.24,87.24,0,0,1-9.24,23.16,6,6,0,0,1-3.65,2.55c-.81.18-2.42-1.05-2.89-2-3.28-6.65-6.8-13.24-9.4-20.16-8.15-21.7-22.11-38.64-41.14-51.57C83,43.16,74.16,40.06,64.92,37.89c-4.42-1-8.55-.61-12.13,1.77a52.8,52.8,0,0,0-10.32,8.69C36,55.59,33.07,64.49,31.73,74c-1.71,12.22.6,23.86,5.1,35.18,6,15.22,14.74,28.8,25.23,41.29C63.26,151.87,65,152.84,66.5,154ZM273.67,61.65c.06-11-.57-14.36-4.08-19.93a39.11,39.11,0,0,0-14-13.2,6.4,6.4,0,0,0-1.85-.37c-.16.86-.71,1.9-.42,2.56,4.81,11,5.94,22.34,5,34.23-1.38,16.79-6.81,32.23-14.23,47.14-8,16-18.21,30.62-28.6,45.11-5.66,7.91-11.43,15.74-17.15,23.6a27.63,27.63,0,0,0-1.69,2.37,7.13,7.13,0,0,0-.48,1.76c.81-.1,1.89.1,2.4-.35,25.2-21.79,46.83-46.59,63.27-75.71C270,94.41,273.77,78.86,273.67,61.65ZM6.53,79.67c.13,1.5.2,2.79.35,4.08a86.71,86.71,0,0,0,14.5,38.74,220.88,220.88,0,0,0,31.93,37.78c3,2.82,6.34,5.35,9.52,8-.4-4.53-4.57-6.47-6.74-9.79A47.55,47.55,0,0,0,53,154.72c-11.4-13.89-20.82-29-26.44-46.11-7.69-23.39-7.18-45.91,9-66.18a3.22,3.22,0,0,0,.54-.8c.22-.59.65-1.66.51-1.75a4.13,4.13,0,0,0-2.49-1c-9.46,2-16.3,7.56-21.08,15.8C8.56,62.49,7.19,71.08,6.53,79.67ZM208.27,9c-9.72-.05-16.36,2.17-22.38,6.36a70.43,70.43,0,0,0-20.72,22.82,6.86,6.86,0,0,0-.66,1.79c-.08.27,0,.81.13.87.49.2,1.23.52,1.55.3a36.39,36.39,0,0,0,3.81-3,90.27,90.27,0,0,1,46.76-22,14,14,0,0,0,4.42-1.51c.8-.43-1.4-2.91-3.9-3.6C213.57,10,209.76,9.32,208.27,9ZM146,99.69l1.37,4.65c3.5-.6,2.88-3.75,3.7-6,.22-.61.4-1.23.57-1.85,4.82-17.43,10-34.73,19.78-50.18a2.62,2.62,0,0,0,.32-.9c0-.3,0-.87-.06-.89-.5-.12-1.25-.36-1.54-.12-7.48,6.27-14.31,13.09-17.69,22.54A112.23,112.23,0,0,0,146,99.69ZM249.41,17.75c-1.08-.46-2.19-1-3.34-1.4-.17-.06-.68.29-.71.5a1,1,0,0,0,.49.76,20.69,20.69,0,0,0,2.5,1.23,1.07,1.07,0,0,0,.85-.18C249.34,18.57,249.31,18.23,249.41,17.75Z" fill="#fbe4dc"/></g></g></svg>