<?xml version="1.0" encoding="UTF-8" standalone="no"?><svg xmlns="http://www.w3.org/2000/svg" xmlns:xlink="http://www.w3.org/1999/xlink" fill="#c37b88" height="64.2" preserveAspectRatio="xMidYMid meet" version="1" viewBox="4.9 17.9 90.2 64.2" width="90.2" zoomAndPan="magnify"><g id="change1_1"><path d="M50.413,31.235c-9.555,0-17.328,7.778-17.328,17.338c0,9.561,7.773,17.338,17.328,17.338 c9.555,0,17.328-7.778,17.328-17.338C67.741,39.013,59.968,31.235,50.413,31.235z"/></g><g id="change1_2"><path d="M50.413,18.643c-16.53,0-29.931,13.4-29.931,29.93s13.4,29.931,29.931,29.931c16.53,0,29.93-13.4,29.93-29.931 S66.943,18.643,50.413,18.643z M50.413,69.063c-11.292,0-20.479-9.19-20.479-20.488c0-11.297,9.187-20.488,20.479-20.488 s20.479,9.191,20.479,20.488C70.893,59.871,61.705,69.063,50.413,69.063z"/></g><g id="change1_3"><path d="M92.926,54.792c-0.365-4.254,0.723-20.973,0.723-24.351c0-3.379,0.045-12.537-1.969-12.537 c-2.176,0-7.828,12.001-4.332,23.76c2.035,6.847,3.531,8.674,3.15,13.127s-1.934,22.584-2.068,24.154 c-0.134,1.57,1.695,3.15,3.282,3.15c1.586,0,3.416-1.58,3.282-3.15C94.859,77.375,93.307,59.245,92.926,54.792z"/></g><g id="change1_4"><path d="M13.468,17.903h-0.173c-0.145,0-0.261,0.118-0.259,0.262l0.153,10.994c0.004,0.29-0.228,0.525-0.518,0.525h-0.197 c-0.29,0-0.535-0.235-0.547-0.525l-0.459-10.995c-0.006-0.145-0.128-0.262-0.273-0.262h-0.23c-0.145,0-0.264,0.118-0.267,0.262 L10.514,29.16c-0.005,0.29-0.244,0.525-0.534,0.525H9.852v0.001c-0.29,0-0.529-0.235-0.534-0.525L9.135,18.166 c-0.002-0.145-0.122-0.262-0.267-0.262h-0.23c-0.145,0-0.268,0.117-0.274,0.262L7.905,29.161c-0.012,0.29-0.257,0.525-0.547,0.525 H7.161c-0.29,0-0.522-0.235-0.518-0.525l0.153-10.994c0.002-0.145-0.114-0.262-0.259-0.262H6.365c-0.145,0-0.27,0.117-0.279,0.262 L5.014,34.848C4.93,36.165,5.216,37.09,6.028,38.13l1.012,1.176c0.567,0.66,1.64,1.875,1.522,3.613 C8.444,44.657,6.77,77.376,6.635,78.945c-0.134,1.57,1.696,3.15,3.282,3.15s3.416-1.58,3.282-3.15 c-0.134-1.569-1.809-34.288-1.927-36.026c-0.118-1.737,0.954-2.953,1.521-3.613l1.012-1.176c0.812-1.04,1.098-1.966,1.013-3.283 l-1.071-16.682C13.738,18.02,13.613,17.903,13.468,17.903z"/></g></svg>