<?xml version="1.0" encoding="UTF-8"?><svg xmlns="http://www.w3.org/2000/svg" xmlns:xlink="http://www.w3.org/1999/xlink" height="424.7" preserveAspectRatio="xMidYMid meet" version="1.0" viewBox="-0.3 -0.1 500.4 424.7" width="500.4" zoomAndPan="magnify"><defs><clipPath id="a"><path d="M 27 310 L 68 310 L 68 424.609375 L 27 424.609375 Z M 27 310"/></clipPath><clipPath id="b"><path d="M 27 319 L 63 319 L 63 424.609375 L 27 424.609375 Z M 27 319"/></clipPath></defs><g><g id="change1_1"><path d="M 398.226562 369.117188 C 398.132812 373.785156 418.507812 377.984375 443.730469 378.488281 C 468.953125 378.996094 489.476562 375.621094 489.570312 370.949219 C 489.664062 366.28125 469.292969 362.082031 444.070312 361.574219 C 418.84375 361.070312 398.320312 364.445312 398.226562 369.117188" fill="#caced9"/></g><g id="change1_2"><path d="M 133.882812 397.285156 C 134.027344 404.578125 107.703125 411.019531 75.082031 411.675781 C 42.464844 412.332031 15.902344 406.949219 15.753906 399.65625 C 15.609375 392.367188 41.933594 385.925781 74.554688 385.269531 C 107.171875 384.613281 133.734375 389.992188 133.882812 397.285156" fill="#caced9"/></g><g id="change2_1"><path d="M 493.605469 402.140625 L 33.554688 402.140625 C 31.425781 402.140625 30.773438 399.265625 32.683594 398.347656 L 58.089844 386.125 L 115.777344 358.355469 C 118.089844 357.246094 119.554688 354.910156 119.554688 352.355469 L 119.554688 32.671875 L 407.601562 32.671875 L 407.601562 352.355469 C 407.601562 354.910156 409.070312 357.246094 411.378906 358.355469 L 419.753906 362.386719 L 453.222656 378.5 L 494.472656 398.347656 C 496.386719 399.265625 495.734375 402.140625 493.605469 402.140625" fill="#e6edf2"/></g><g id="change3_1"><path d="M 55.496094 395.140625 L 118.816406 364.664062 C 123.511719 362.410156 126.554688 357.578125 126.554688 352.355469 L 126.554688 39.671875 L 400.601562 39.671875 L 400.601562 352.355469 C 400.601562 357.578125 403.644531 362.410156 408.355469 364.667969 L 450.1875 384.804688 L 471.660156 395.140625 L 55.496094 395.140625" fill="#fff"/></g><g id="change2_2"><path d="M 407.601562 61.214844 L 407.601562 32.671875 L 119.554688 32.671875 L 119.554688 61.214844 L 407.601562 61.214844" fill="#e6edf2"/></g><g id="change4_1"><path d="M 417.503906 44.761719 L 109.972656 44.761719 C 108.382812 44.761719 106.9375 43.867188 106.214844 42.453125 C 105.1875 40.449219 104.089844 37.441406 104.113281 33.699219 C 104.132812 30.054688 105.207031 27.125 106.21875 25.15625 C 106.941406 23.746094 108.386719 22.859375 109.972656 22.859375 L 417.503906 22.859375 C 419.203125 22.859375 420.746094 23.871094 421.390625 25.445312 C 422.273438 27.605469 423.132812 30.671875 423.039062 34.375 C 422.957031 37.535156 422.207031 40.167969 421.414062 42.117188 C 420.765625 43.710938 419.226562 44.761719 417.503906 44.761719" fill="#ffbf91"/></g><g id="change5_1"><path d="M 105.019531 39.519531 C 105.378906 40.648438 105.796875 41.640625 106.214844 42.453125 C 106.9375 43.867188 108.382812 44.761719 109.972656 44.761719 L 417.503906 44.761719 C 419.226562 44.761719 420.765625 43.710938 421.414062 42.117188 C 421.722656 41.359375 422.019531 40.480469 422.277344 39.519531 L 105.019531 39.519531" fill="#e68545"/></g><g id="change6_1"><path d="M 422.289062 28.113281 C 422.019531 27.117188 421.707031 26.222656 421.390625 25.445312 C 420.746094 23.871094 419.203125 22.859375 417.503906 22.859375 L 109.972656 22.859375 C 108.386719 22.859375 106.941406 23.746094 106.21875 25.15625 C 105.796875 25.980469 105.367188 26.976562 105.003906 28.113281 L 422.289062 28.113281" fill="#fff7f2"/></g><g id="change2_3"><path d="M 306.546875 382.625 C 306.546875 385.480469 288.828125 387.792969 266.96875 387.792969 C 245.109375 387.792969 227.390625 385.480469 227.390625 382.625 C 227.390625 379.769531 245.109375 377.457031 266.96875 377.457031 C 288.828125 377.457031 306.546875 379.769531 306.546875 382.625" fill="#e6edf2"/></g><g id="change5_2"><path d="M 280.953125 289.601562 L 287.933594 378.164062 C 287.972656 378.652344 287.65625 379.105469 287.179688 379.226562 C 286.867188 379.304688 286.503906 379.363281 286.101562 379.378906 C 285.460938 379.402344 284.910156 379.304688 284.476562 379.183594 C 284.082031 379.070312 283.800781 378.722656 283.757812 378.3125 C 280.742188 348.742188 277.722656 319.171875 274.703125 289.601562 L 280.953125 289.601562" fill="#e68545"/></g><g id="change5_3"><path d="M 252.480469 289.601562 L 245.507812 378.105469 C 245.464844 378.621094 245.8125 379.085938 246.316406 379.183594 C 246.648438 379.246094 247.027344 379.292969 247.449219 379.296875 C 247.996094 379.304688 248.484375 379.238281 248.890625 379.152344 C 249.320312 379.058594 249.636719 378.699219 249.679688 378.261719 C 252.695312 348.707031 255.714844 319.15625 258.730469 289.601562 L 252.480469 289.601562" fill="#e68545"/></g><g id="change5_4"><path d="M 283.695312 353.363281 L 249.640625 353.363281 L 249.640625 349.816406 L 283.695312 349.816406 L 283.695312 353.363281" fill="#e68545"/></g><g id="change4_2"><path d="M 288.625 359.96875 L 244.710938 359.96875 L 244.710938 354.632812 L 288.625 354.632812 L 288.625 359.96875" fill="#ffbf91"/></g><g id="change5_5"><path d="M 282.546875 322.707031 L 250.792969 322.707031 L 250.792969 317.640625 L 282.546875 317.640625 L 282.546875 322.707031" fill="#e68545"/></g><g id="change4_3"><path d="M 283.695312 324.578125 L 249.640625 324.578125 L 249.640625 319.734375 L 283.695312 319.734375 L 283.695312 324.578125" fill="#ffbf91"/></g><g id="change4_4"><path d="M 252.480469 289.601562 L 236.480469 384.074219 C 236.386719 384.636719 236.769531 385.15625 237.332031 385.246094 C 237.820312 385.324219 238.378906 385.378906 238.996094 385.371094 C 239.6875 385.367188 240.304688 385.289062 240.828125 385.1875 C 241.238281 385.105469 241.546875 384.78125 241.621094 384.371094 C 247.324219 352.78125 253.027344 321.191406 258.730469 289.601562 L 252.480469 289.601562" fill="#ffbf91"/></g><g id="change4_5"><path d="M 280.953125 289.601562 L 296.953125 384.082031 C 297.046875 384.621094 296.691406 385.152344 296.152344 385.246094 C 295.78125 385.308594 295.375 385.355469 294.9375 385.371094 C 294.035156 385.410156 293.246094 385.320312 292.601562 385.191406 C 292.195312 385.109375 291.886719 384.78125 291.8125 384.375 C 286.109375 352.785156 280.40625 321.191406 274.703125 289.601562 L 280.953125 289.601562" fill="#ffbf91"/></g><g id="change5_6"><path d="M 256.132812 303.992188 C 256.996094 299.195312 257.863281 294.398438 258.730469 289.601562 L 252.480469 289.601562 L 250.042969 303.992188 L 256.132812 303.992188" fill="#e68545"/></g><g id="change5_7"><path d="M 283.390625 303.992188 L 280.953125 289.601562 L 274.703125 289.601562 C 275.570312 294.398438 276.4375 299.195312 277.300781 303.992188 L 283.390625 303.992188" fill="#e68545"/></g><g id="change5_8"><path d="M 285.351562 295.414062 L 248.082031 295.414062 C 246.835938 295.414062 245.824219 294.402344 245.824219 293.15625 L 245.824219 290.574219 L 287.609375 290.574219 L 287.609375 293.15625 C 287.609375 294.402344 286.597656 295.414062 285.351562 295.414062" fill="#e68545"/></g><g id="change4_6"><path d="M 288.53125 284.804688 L 244.902344 284.804688 L 233.957031 285.609375 L 299.476562 285.609375 L 288.53125 284.804688" fill="#ffbf91"/></g><g id="change4_7"><path d="M 299.476562 291.582031 L 233.957031 291.582031 C 233.332031 291.582031 232.828125 291.078125 232.828125 290.453125 L 232.828125 286.742188 C 232.828125 286.117188 233.332031 285.609375 233.957031 285.609375 L 299.476562 285.609375 C 300.101562 285.609375 300.605469 286.117188 300.605469 286.742188 L 300.605469 290.453125 C 300.605469 291.078125 300.101562 291.582031 299.476562 291.582031" fill="#ffbf91"/></g><g id="change2_4"><path d="M 453.222656 378.5 C 450.160156 378.554688 446.980469 378.554688 443.730469 378.492188 C 418.503906 377.980469 398.136719 373.789062 398.222656 369.113281 C 398.289062 366.09375 406.878906 363.621094 419.753906 362.386719 L 453.222656 378.5" fill="#e6edf2"/></g><g id="change7_2"><path d="M 479.738281 347.511719 L 478.050781 340.265625 L 444.421875 348.105469 L 448.46875 354.5625 L 479.738281 347.511719" fill="#3d4552"/></g><g id="change7_3"><path d="M 447.136719 358.261719 C 447.898438 358.261719 448.660156 358.167969 449.402344 357.988281 C 450.257812 357.777344 450.855469 357.007812 450.855469 356.121094 L 450.855469 349.046875 L 443.417969 349.046875 L 443.417969 356.121094 C 443.417969 357.007812 444.015625 357.777344 444.871094 357.988281 C 445.601562 358.164062 446.347656 358.257812 447.097656 358.261719 L 447.136719 358.261719" fill="#3d4552"/></g><g id="change7_4"><path d="M 496.28125 373.058594 C 497.09375 373.058594 497.867188 372.796875 498.519531 372.308594 C 499.3125 371.710938 499.824219 370.839844 499.964844 369.855469 C 500.101562 368.871094 499.847656 367.890625 499.25 367.097656 L 450.285156 302.132812 C 449.589844 301.203125 448.476562 300.652344 447.3125 300.652344 C 446.5 300.652344 445.726562 300.910156 445.078125 301.398438 C 444.285156 301.996094 443.769531 302.867188 443.632812 303.851562 C 443.492188 304.835938 443.746094 305.816406 444.347656 306.609375 L 493.308594 371.574219 C 494.007812 372.503906 495.117188 373.058594 496.28125 373.058594" fill="#3d4552"/></g><g id="change7_5"><path d="M 467.117188 360.15625 L 448.441406 347.519531 L 401.203125 347.570312 L 399.316406 354.957031 L 446.191406 354.957031 L 464.640625 367.261719 L 467.117188 360.15625" fill="#3d4552"/></g><g id="change7_6"><path d="M 447.335938 227.960938 C 448.085938 227.957031 448.835938 227.863281 449.5625 227.6875 C 450.421875 227.476562 451.019531 226.707031 451.019531 225.820312 L 451.019531 203.007812 L 443.578125 203.007812 L 443.578125 225.820312 C 443.578125 226.707031 444.175781 227.476562 445.035156 227.6875 C 445.773438 227.867188 446.535156 227.960938 447.296875 227.960938 L 447.335938 227.960938" fill="#3d4552"/></g><g id="change7_7"><path d="M 447.335938 265.136719 C 448.085938 265.132812 448.835938 265.039062 449.5625 264.859375 C 450.421875 264.648438 451.019531 263.882812 451.019531 262.996094 L 451.019531 224.15625 L 443.578125 224.15625 L 443.578125 262.996094 C 443.578125 263.882812 444.175781 264.648438 445.035156 264.859375 C 445.773438 265.042969 446.535156 265.136719 447.300781 265.136719 L 447.335938 265.136719" fill="#3d4552"/></g><g id="change7_8"><path d="M 447.335938 352.863281 C 448.085938 352.863281 448.835938 352.769531 449.5625 352.589844 C 450.421875 352.378906 451.019531 351.613281 451.019531 350.726562 L 451.019531 260.667969 L 443.578125 260.667969 L 443.578125 350.726562 C 443.578125 351.613281 444.175781 352.378906 445.035156 352.589844 C 445.773438 352.773438 446.535156 352.863281 447.296875 352.863281 L 447.335938 352.863281" fill="#3d4552"/></g><g id="change8_1"><path d="M 447.914062 251.386719 L 447.914062 239.339844 C 446.457031 239.363281 445.003906 239.179688 443.578125 238.828125 L 443.578125 251.53125 C 445.039062 251.152344 446.460938 251.21875 447.914062 251.386719" fill="#f9fcff"/></g><g id="change8_2"><path d="M 447.914062 296.4375 L 447.914062 276.261719 C 446.460938 276.316406 445.023438 276.191406 443.578125 275.882812 L 443.578125 296.679688 C 445 296.480469 446.492188 296.328125 447.914062 296.4375" fill="#f9fcff"/></g><g id="change8_3"><path d="M 443.578125 332.433594 L 443.578125 350.726562 C 443.578125 351.613281 444.175781 352.378906 445.035156 352.589844 C 445.773438 352.773438 446.535156 352.863281 447.296875 352.863281 L 447.335938 352.863281 C 447.527344 352.863281 447.71875 352.839844 447.914062 352.828125 L 447.914062 326.757812 C 446.484375 328.664062 445.046875 330.558594 443.578125 332.433594" fill="#f9fcff"/></g><g id="change7_9"><path d="M 387.347656 371.175781 C 388.347656 371.175781 389.285156 370.785156 389.988281 370.074219 L 449.964844 306.980469 C 451.402344 305.535156 451.390625 303.175781 449.9375 301.730469 C 449.234375 301.035156 448.304688 300.652344 447.316406 300.652344 C 446.316406 300.652344 445.378906 301.042969 444.675781 301.75 L 384.699219 364.84375 C 384.007812 365.542969 383.625 366.476562 383.628906 367.472656 C 383.632812 368.464844 384.023438 369.398438 384.726562 370.097656 C 385.429688 370.792969 386.359375 371.175781 387.347656 371.175781" fill="#3d4552"/></g><g id="change7_10"><path d="M 470.0625 381.117188 C 470.433594 381.117188 470.808594 381.0625 471.164062 380.949219 C 472.113281 380.65625 472.890625 380.007812 473.355469 379.128906 C 473.816406 378.25 473.910156 377.242188 473.613281 376.296875 L 450.871094 303.277344 C 450.382812 301.703125 448.953125 300.648438 447.316406 300.648438 C 446.941406 300.648438 446.570312 300.707031 446.210938 300.820312 C 445.265625 301.113281 444.484375 301.761719 444.023438 302.640625 C 443.5625 303.519531 443.46875 304.527344 443.765625 305.472656 L 466.507812 378.492188 C 466.996094 380.066406 468.425781 381.117188 470.0625 381.117188" fill="#3d4552"/></g><g id="change8_4"><path d="M 466.117188 328.894531 C 467.363281 332.839844 468.660156 336.765625 470.019531 340.671875 L 493.308594 371.574219 C 494.011719 372.507812 495.117188 373.054688 496.28125 373.054688 C 497.09375 373.054688 497.867188 372.800781 498.523438 372.308594 C 498.59375 372.25 498.664062 372.195312 498.738281 372.125 L 466.117188 328.894531" fill="#f9fcff"/></g><g id="change8_5"><path d="M 437.269531 309.542969 L 384.695312 364.847656 C 384.007812 365.542969 383.625 366.472656 383.625 367.46875 C 383.632812 368.355469 383.945312 369.191406 384.503906 369.859375 L 437.304688 314.558594 C 437.355469 312.917969 437.46875 311.1875 437.269531 309.542969" fill="#f9fcff"/></g><g id="change8_6"><path d="M 447.210938 316.417969 L 447.175781 316.433594 L 466.503906 378.492188 C 467 380.066406 468.425781 381.121094 470.058594 381.121094 C 470.378906 381.121094 470.695312 381.078125 471.007812 380.992188 L 451.964844 318.46875 C 451.351562 316.464844 449.078125 315.460938 447.210938 316.417969" fill="#f9fcff"/></g><g id="change7_11"><path d="M 452.21875 230.4375 L 452.21875 222.234375 C 452.21875 220.28125 450.632812 218.695312 448.675781 218.695312 L 445.921875 218.695312 C 443.964844 218.695312 442.378906 220.28125 442.378906 222.234375 L 442.378906 230.4375 C 442.378906 232.394531 443.964844 233.980469 445.921875 233.980469 L 448.675781 233.980469 C 450.632812 233.980469 452.21875 232.394531 452.21875 230.4375" fill="#3d4552"/></g><g id="change7_12"><path d="M 452.21875 265.628906 L 452.21875 257.425781 C 452.21875 255.472656 450.632812 253.886719 448.675781 253.886719 L 445.921875 253.886719 C 443.964844 253.886719 442.378906 255.472656 442.378906 257.425781 L 442.378906 265.628906 C 442.378906 267.585938 443.964844 269.171875 445.921875 269.171875 L 448.675781 269.171875 C 450.632812 269.171875 452.21875 267.585938 452.21875 265.628906" fill="#3d4552"/></g><g id="change9_1"><path d="M 452.011719 221.09375 C 451.535156 219.699219 450.230469 218.695312 448.675781 218.695312 L 445.921875 218.695312 C 443.964844 218.695312 442.378906 220.28125 442.378906 222.234375 L 442.378906 229.347656 C 445.054688 225.984375 448.363281 223.089844 452.011719 221.09375" fill="#556073"/></g><g id="change9_2"><path d="M 451.914062 256 C 451.363281 254.757812 450.121094 253.886719 448.675781 253.886719 L 445.921875 253.886719 C 443.964844 253.886719 442.378906 255.472656 442.378906 257.425781 L 442.378906 261.886719 C 445.160156 259.101562 448.375 256.9375 451.914062 256" fill="#556073"/></g><g id="change7_13"><path d="M 463.761719 194.527344 C 464.324219 187.839844 459.359375 181.964844 452.675781 181.402344 C 452.585938 181.394531 452.503906 181.390625 452.414062 181.386719 C 450.871094 181.285156 449.371094 181.488281 447.976562 181.933594 C 445.433594 182.335938 440.382812 182.496094 437.039062 178.390625 C 432.394531 172.683594 436.25 220.957031 439.03125 215.417969 C 443.800781 205.925781 453.277344 205.589844 453.277344 205.589844 L 453.273438 205.546875 C 458.804688 204.808594 463.273438 200.316406 463.761719 194.527344" fill="#3d4552"/></g><g id="change7_14"><path d="M 447.191406 195.871094 C 449.351562 212.949219 430.066406 236.472656 416.457031 236.925781 C 402.84375 237.375 397.679688 217.070312 397.140625 200.8125 C 396.601562 184.554688 397.746094 164.980469 411.359375 164.53125 C 424.96875 164.082031 445.027344 178.789062 447.191406 195.871094" fill="#3d4552"/></g><g id="change3_2"><path d="M 458.699219 187.359375 C 457.199219 185.378906 454.84375 184.300781 452.367188 184.089844 C 452.300781 184.085938 452.234375 184.078125 452.167969 184.074219 C 452.089844 184.070312 452.007812 184.066406 451.929688 184.0625 C 450.855469 184.023438 449.792969 184.167969 448.765625 184.496094 L 448.625 184.539062 L 448.476562 184.5625 C 447.417969 184.730469 446.359375 184.796875 445.324219 184.757812 C 444.566406 184.730469 443.835938 184.640625 443.132812 184.503906 C 445.929688 188.578125 446.925781 193.394531 447.035156 194.207031 C 447.121094 194.65625 447.191406 195.105469 447.25 195.558594 C 447.523438 197.734375 447.425781 200.019531 447.015625 202.351562 C 447.390625 201.117188 448.945312 195.722656 448.625 192.007812 C 453.90625 192.484375 460.90625 190.273438 458.699219 187.359375" fill="#fff"/></g><g id="change9_3"><path d="M 441.261719 200.210938 C 441.933594 220.503906 428.707031 237.40625 411.722656 237.96875 C 394.738281 238.527344 380.425781 222.535156 379.753906 202.242188 C 379.082031 181.953125 392.308594 165.050781 409.292969 164.488281 C 426.277344 163.925781 440.589844 179.921875 441.261719 200.210938" fill="#556073"/></g><g id="change3_3"><path d="M 433.5625 209.339844 C 434.65625 209.242188 435.675781 208.933594 436.625 208.453125 C 435.621094 214.113281 433.363281 219.339844 429.992188 223.640625 C 425.164062 229.816406 418.621094 233.339844 411.578125 233.578125 C 411.054688 233.59375 410.527344 233.59375 410.003906 233.570312 C 408.820312 233.523438 407.667969 233.386719 406.535156 233.164062 C 406.015625 233.0625 405.5 232.941406 404.988281 232.796875 C 393.261719 229.632812 384.320312 217.148438 383.824219 202.113281 C 383.394531 189.089844 389.394531 177.632812 398.390625 172.207031 C 399.9375 171.265625 401.570312 170.515625 403.269531 169.960938 C 405.238281 169.3125 407.300781 168.949219 409.4375 168.875 C 409.960938 168.859375 410.488281 168.859375 411.015625 168.882812 C 420.441406 169.234375 428.695312 175.519531 433.308594 184.75 C 436.855469 191.472656 437.039062 197.953125 437.246094 202.859375 C 436.566406 194.503906 432.980469 187.96875 431.308594 185.308594 C 427.675781 185.671875 424.726562 188.367188 423.355469 192.097656 C 422.671875 193.9375 422.375 196.03125 422.574219 198.214844 C 422.621094 198.71875 422.695312 199.210938 422.789062 199.695312 C 423.921875 205.578125 428.511719 209.792969 433.5625 209.339844" fill="#fff"/></g><g id="change9_4"><path d="M 430.34375 191.210938 C 428.078125 192.257812 424.191406 190.710938 422.855469 190.113281 C 421.8125 189.554688 420.664062 189.152344 419.4375 188.941406 C 413.304688 187.898438 407.480469 192.023438 406.4375 198.15625 C 405.390625 204.289062 409.515625 210.109375 415.648438 211.15625 C 419.367188 211.789062 422.96875 210.523438 425.464844 208.0625 L 425.46875 208.085938 C 425.46875 208.085938 425.539062 208 425.671875 207.855469 C 425.730469 207.792969 425.785156 207.730469 425.84375 207.667969 C 426.96875 206.464844 430.476562 203.0625 434.179688 203.023438 C 438.679688 202.972656 433.804688 189.613281 430.34375 191.210938" fill="#556073"/></g><g id="change3_4"><path d="M 416.996094 208.277344 C 416.785156 208.257812 416.574219 208.230469 416.367188 208.195312 C 414.175781 207.820312 412.261719 206.613281 410.976562 204.800781 C 409.6875 202.988281 409.1875 200.78125 409.5625 198.589844 C 410.289062 194.324219 414.230469 191.296875 418.535156 191.699219 C 418.742188 191.722656 418.953125 191.75 419.164062 191.785156 C 420.046875 191.933594 420.898438 192.226562 421.6875 192.648438 L 421.746094 192.679688 L 421.804688 192.707031 C 422.816406 193.15625 424.808594 193.945312 426.769531 194.128906 C 427.554688 194.203125 428.273438 194.171875 428.921875 194.042969 C 429.605469 193.902344 430.304688 194.152344 430.730469 194.707031 C 431.171875 195.28125 431.660156 196.125 431.910156 197.253906 C 432.15625 198.363281 432.066406 199.253906 431.902344 199.882812 C 431.734375 200.515625 431.234375 200.992188 430.605469 201.167969 C 428.894531 201.648438 427.347656 202.613281 426.121094 203.570312 C 426.121094 203.570312 424.785156 204.691406 423.90625 205.601562 L 423.742188 205.785156 L 423.617188 205.90625 C 421.855469 207.644531 419.441406 208.507812 416.996094 208.277344" fill="#fff"/></g><g id="change9_5"><path d="M 419.769531 191.839844 C 421.988281 192.652344 425.859375 195.878906 425.078125 201.914062 C 426.027344 199.617188 426.210938 194.652344 423.542969 193.058594 C 420.878906 191.464844 419.769531 191.839844 419.769531 191.839844" fill="#556073"/></g><g id="change2_5"><path d="M 133.882812 397.289062 C 133.914062 398.96875 132.535156 400.609375 129.996094 402.140625 L 33.554688 402.140625 C 31.425781 402.140625 30.773438 399.265625 32.683594 398.347656 L 58.089844 386.125 C 63.308594 385.679688 68.828125 385.382812 74.550781 385.273438 C 107.171875 384.609375 133.738281 389.996094 133.882812 397.289062" fill="#e6edf2"/></g><g id="change9_6"><path d="M 237.617188 68.167969 C 235.019531 84.179688 232.726562 101.085938 230.882812 118.820312 C 230.367188 123.742188 229.902344 128.617188 229.488281 133.425781 C 228.613281 143.449219 227.929688 153.222656 227.40625 162.726562 C 227.363281 163.503906 227.179688 164.253906 226.859375 164.9375 C 226.488281 165.78125 225.914062 166.53125 225.1875 167.136719 C 214.917969 175.671875 204.21875 185.199219 193.296875 195.808594 C 187.941406 201.011719 182.859375 206.171875 178.019531 211.253906 C 173.859375 215.632812 169.890625 219.949219 166.105469 224.199219 C 165.167969 225.242188 163.9375 225.917969 162.605469 226.15625 C 161.726562 226.316406 160.816406 226.28125 159.921875 226.035156 C 150.097656 223.398438 139.136719 220.96875 127.128906 219.097656 C 120.5625 218.070312 114.246094 217.300781 108.214844 216.734375 C 104.125 216.347656 100.164062 216.0625 96.34375 215.851562 C 94.953125 215.773438 93.679688 215.226562 92.65625 214.359375 C 92.648438 214.351562 92.640625 214.339844 92.625 214.339844 C 87.101562 211.003906 81.46875 198.707031 76.601562 182.609375 C 74.6875 179.171875 72.65625 175.671875 70.507812 172.136719 C 63.464844 160.558594 56.246094 150.398438 49.339844 141.613281 C 48.152344 140.101562 47.738281 138.136719 48.21875 136.273438 C 50.984375 125.65625 53.488281 113.640625 55.277344 100.378906 C 56.871094 88.480469 57.636719 77.40625 57.875 67.390625 C 57.90625 65.941406 58.464844 64.574219 59.410156 63.496094 C 59.578125 63.300781 59.753906 63.117188 59.949219 62.945312 C 66.003906 57.558594 72.226562 51.738281 78.535156 45.476562 C 81.257812 42.777344 83.996094 39.992188 86.753906 37.128906 C 88.417969 35.398438 89.351562 34.234375 90.945312 32.523438 C 97.042969 21.890625 104.242188 15.066406 112.050781 7.453125 C 112.050781 7.445312 112.050781 7.445312 112.070312 7.4375 C 113.191406 6.347656 114.320312 5.234375 115.460938 4.105469 C 115.46875 4.105469 115.46875 4.097656 115.46875 4.097656 C 115.484375 4.089844 115.492188 4.082031 115.5 4.0625 C 115.898438 3.683594 116.34375 3.355469 116.824219 3.101562 C 117.804688 2.5625 118.914062 2.300781 120.0625 2.359375 C 129.371094 2.816406 139.574219 3.011719 150.132812 2.714844 C 152.6875 2.648438 155.210938 2.546875 157.695312 2.429688 C 167.664062 1.945312 177.066406 1.105469 185.835938 0.0429688 C 187.210938 -0.128906 188.558594 0.175781 189.695312 0.851562 C 190.574219 1.363281 191.332031 2.097656 191.871094 3.011719 C 197.269531 12.082031 203.492188 21.6875 210.667969 31.597656 C 213.832031 35.953125 216.992188 40.128906 220.136719 44.109375 C 225.550781 50.972656 230.914062 57.289062 236.125 63.074219 C 237.003906 64.035156 237.527344 65.230469 237.660156 66.496094 C 237.726562 67.046875 237.710938 67.609375 237.617188 68.167969" fill="#556073"/></g><g id="change7_15"><path d="M 157.695312 2.429688 C 129.988281 13.332031 94.480469 48.382812 85.210938 94.222656 C 77.699219 53.425781 99.722656 21.28125 112.050781 7.453125 C 112.050781 7.445312 112.050781 7.445312 112.070312 7.4375 C 113.191406 6.347656 114.320312 5.234375 115.460938 4.105469 C 115.46875 4.105469 115.46875 4.097656 115.46875 4.097656 C 115.484375 4.089844 115.492188 4.082031 115.5 4.0625 C 115.898438 3.683594 116.34375 3.355469 116.824219 3.101562 C 117.804688 2.5625 118.914062 2.300781 120.0625 2.359375 C 129.371094 2.816406 139.574219 3.011719 150.132812 2.714844 C 152.6875 2.648438 155.210938 2.546875 157.695312 2.429688" fill="#3d4552"/></g><g id="change7_16"><path d="M 220.136719 44.109375 C 185.277344 42.589844 136.414062 58.671875 86.351562 100.503906 L 88.980469 91.222656 C 107.652344 49.167969 162.597656 12.640625 189.695312 0.851562 C 190.574219 1.363281 191.332031 2.097656 191.871094 3.011719 C 197.269531 12.082031 203.492188 21.6875 210.667969 31.597656 C 213.832031 35.953125 216.992188 40.128906 220.136719 44.109375" fill="#3d4552"/></g><g id="change7_17"><path d="M 85.421875 98.253906 C 83.710938 97.207031 81.425781 95.875 78.449219 94.222656 C 63.609375 86.011719 59.417969 74.441406 59.410156 63.496094 C 59.578125 63.300781 59.753906 63.117188 59.949219 62.945312 C 66.003906 57.558594 72.226562 51.738281 78.535156 45.476562 C 74.496094 59.429688 74.191406 81.523438 78.585938 89.972656 C 80.363281 93.386719 83.105469 96.261719 85.421875 98.253906" fill="#3d4552"/></g><g id="change7_18"><path d="M 237.617188 68.167969 C 235.019531 84.179688 232.726562 101.085938 230.882812 118.820312 C 230.367188 123.742188 229.902344 128.617188 229.488281 133.425781 C 181.347656 116.703125 108.722656 101.078125 94.671875 101.332031 C 78.785156 101.609375 94.792969 95.96875 94.792969 95.96875 C 152.863281 76.894531 208.738281 67.035156 237.660156 66.496094 C 237.726562 67.046875 237.710938 67.609375 237.617188 68.167969" fill="#3d4552"/></g><g id="change7_19"><path d="M 162.605469 226.15625 C 161.726562 226.316406 160.816406 226.28125 159.921875 226.035156 C 150.097656 223.398438 139.136719 220.96875 127.128906 219.097656 C 120.5625 218.070312 114.246094 217.300781 108.214844 216.734375 C 91.097656 184.363281 84.640625 137.117188 82.210938 109.914062 C 79.402344 78.488281 85.710938 100.503906 85.710938 100.503906 C 92.859375 141.957031 135.890625 200.402344 162.605469 226.15625" fill="#3d4552"/></g><g id="change7_20"><path d="M 226.859375 164.9375 C 226.488281 165.78125 225.914062 166.53125 225.1875 167.136719 C 214.917969 175.671875 204.21875 185.199219 193.296875 195.808594 C 187.941406 201.011719 182.859375 206.171875 178.019531 211.253906 C 133.613281 176.363281 85.710938 100.503906 85.710938 100.503906 C 110.929688 118.492188 197.65625 154.050781 226.859375 164.9375" fill="#3d4552"/></g><g id="change3_5"><path d="M 158.214844 221.027344 C 153.90625 216.925781 149.703125 212.703125 145.613281 208.371094 C 141.523438 204.035156 137.578125 199.5625 133.734375 195 C 126.046875 185.871094 118.902344 176.265625 112.316406 166.261719 C 105.746094 156.246094 99.78125 145.792969 94.769531 134.796875 C 92.285156 129.289062 90.054688 123.640625 88.242188 117.78125 C 87.367188 114.84375 86.542969 111.871094 85.964844 108.796875 C 85.378906 105.730469 84.941406 102.59375 84.867188 99.324219 L 92.261719 99.367188 C 92.128906 104.761719 93.089844 110.46875 94.472656 116.046875 C 95.890625 121.640625 97.75 127.183594 99.878906 132.636719 C 104.175781 143.539062 109.496094 154.113281 115.460938 164.316406 C 121.4375 174.511719 128.015625 184.390625 135.179688 193.847656 C 138.761719 198.574219 142.453125 203.226562 146.300781 207.757812 C 150.148438 212.28125 154.121094 216.707031 158.214844 221.027344" fill="#fff"/></g><g id="change3_6"><path d="M 182.492188 4.261719 C 172.785156 9.929688 163.285156 15.941406 154.128906 22.414062 C 144.980469 28.886719 136.179688 35.835938 128.003906 43.410156 C 119.84375 50.984375 112.289062 59.203125 106.027344 68.230469 C 99.78125 77.242188 94.851562 87.128906 92.421875 97.527344 L 85.269531 95.648438 C 88.601562 84.273438 94.515625 74.011719 101.558594 64.949219 C 108.632812 55.863281 116.847656 47.878906 125.566406 40.632812 C 134.300781 33.386719 143.558594 26.875 153.105469 20.875 C 162.652344 14.878906 172.488281 9.386719 182.492188 4.261719" fill="#fff"/></g><g id="change3_7"><path d="M 231.230469 66.832031 C 218.796875 68.195312 206.402344 69.875 194.066406 71.851562 C 181.730469 73.835938 169.449219 76.109375 157.265625 78.765625 C 145.085938 81.421875 132.996094 84.46875 121.152344 88.144531 C 118.214844 89.117188 115.261719 90.054688 112.34375 91.0625 L 105.828125 93.453125 C 105.105469 93.71875 104.410156 94.035156 103.699219 94.320312 L 99.453125 96.082031 C 98.734375 96.363281 98.054688 96.699219 97.371094 97.027344 L 95.3125 98.007812 C 92.515625 99.238281 89.972656 100.800781 87.347656 102.234375 L 83.648438 95.832031 C 86.578125 94.394531 89.46875 92.839844 92.460938 91.6875 L 94.6875 90.757812 C 95.429688 90.449219 96.167969 90.132812 96.925781 89.878906 L 101.429688 88.261719 C 102.183594 88 102.925781 87.710938 103.683594 87.472656 L 105.957031 86.765625 L 110.496094 85.347656 C 113.535156 84.464844 116.589844 83.65625 119.632812 82.8125 C 131.855469 79.667969 144.1875 77.203125 156.566406 75.136719 C 168.945312 73.070312 181.371094 71.394531 193.820312 70.019531 C 206.269531 68.648438 218.742188 67.578125 231.230469 66.832031" fill="#fff"/></g><g id="change3_8"><path d="M 220.832031 162.695312 C 209.46875 158.894531 198.210938 154.742188 187.058594 150.316406 C 175.933594 145.835938 164.871094 141.171875 153.90625 136.28125 C 142.949219 131.386719 132.054688 126.332031 121.238281 121.117188 C 110.414062 115.890625 99.683594 110.558594 88.984375 104.964844 L 92.609375 98.519531 C 102.851562 104.566406 113.296875 110.445312 123.773438 116.1875 C 134.265625 121.925781 144.839844 127.507812 155.496094 132.945312 C 166.15625 138.371094 176.929688 143.582031 187.789062 148.617188 C 198.671875 153.597656 209.675781 158.316406 220.832031 162.695312" fill="#fff"/></g><g id="change3_9"><path d="M 91.003906 212.101562 C 86.464844 203.730469 82.882812 194.816406 80.160156 185.640625 C 77.4375 176.460938 75.5625 167.007812 74.488281 157.445312 C 73.414062 147.886719 73.128906 138.210938 73.707031 128.539062 C 74.296875 118.875 75.726562 109.199219 78.390625 99.703125 L 85.429688 101.964844 C 82.382812 110.628906 80.398438 119.78125 79.230469 129.050781 C 78.066406 138.328125 77.730469 147.75 78.171875 157.152344 C 78.617188 166.554688 79.847656 175.945312 81.945312 185.171875 C 84.042969 194.390625 87.015625 203.453125 91.003906 212.101562" fill="#fff"/></g><g id="change3_10"><path d="M 116.980469 5.9375 C 110.914062 11.667969 105.421875 17.984375 100.960938 24.949219 C 96.472656 31.890625 92.964844 39.402344 90.5 47.210938 C 88.027344 55.019531 86.585938 63.105469 85.910156 71.25 C 85.246094 79.402344 85.34375 87.609375 85.796875 95.832031 L 78.40625 95.96875 C 78.5625 87.519531 79.085938 79.007812 80.40625 70.589844 C 81.730469 62.175781 83.859375 53.859375 87.019531 45.964844 C 90.171875 38.0625 94.363281 30.609375 99.445312 23.886719 C 104.507812 17.140625 110.511719 11.199219 116.980469 5.9375" fill="#fff"/></g><g id="change3_11"><path d="M 50.046875 136.914062 L 50.960938 133.742188 L 51.421875 132.152344 C 51.578125 131.621094 51.710938 131.082031 51.921875 130.570312 L 53.089844 127.464844 L 53.679688 125.902344 C 53.902344 125.394531 54.148438 124.894531 54.378906 124.390625 L 55.804688 121.359375 C 56.308594 120.363281 56.898438 119.410156 57.445312 118.429688 L 58.28125 116.964844 C 58.5625 116.480469 58.902344 116.03125 59.210938 115.558594 C 59.847656 114.632812 60.46875 113.683594 61.128906 112.765625 C 63.851562 109.148438 66.992188 105.796875 70.558594 102.863281 C 71.007812 102.5 71.445312 102.117188 71.90625 101.769531 L 73.3125 100.746094 C 74.238281 100.042969 75.242188 99.441406 76.222656 98.804688 C 76.714844 98.484375 77.242188 98.214844 77.75 97.917969 L 78.523438 97.480469 L 79.320312 97.078125 C 79.851562 96.808594 80.390625 96.542969 80.953125 96.300781 C 81.234375 96.175781 81.503906 96.050781 81.8125 95.933594 C 82.117188 95.816406 82.375 95.703125 82.789062 95.570312 L 84.53125 102.121094 C 84.417969 102.132812 84.15625 102.203125 83.941406 102.257812 C 83.722656 102.304688 83.484375 102.382812 83.25 102.449219 C 82.785156 102.582031 82.3125 102.742188 81.839844 102.914062 L 81.125 103.160156 L 80.417969 103.449219 C 79.949219 103.648438 79.46875 103.820312 79.003906 104.042969 C 78.082031 104.488281 77.128906 104.894531 76.230469 105.414062 L 74.863281 106.160156 C 74.410156 106.421875 73.976562 106.710938 73.535156 106.984375 C 69.992188 109.203125 66.703125 111.898438 63.71875 114.953125 C 62.992188 115.730469 62.296875 116.542969 61.582031 117.34375 C 61.230469 117.75 60.851562 118.132812 60.527344 118.558594 L 59.554688 119.84375 C 58.914062 120.710938 58.230469 121.550781 57.625 122.445312 L 55.878906 125.183594 C 55.589844 125.644531 55.285156 126.097656 55.007812 126.5625 L 54.242188 128.003906 L 52.707031 130.894531 C 52.429688 131.371094 52.234375 131.882812 52.011719 132.382812 L 51.359375 133.886719 L 50.046875 136.914062" fill="#fff"/></g><g id="change3_12"><path d="M 59.996094 66.703125 C 60.449219 70.132812 61.277344 73.488281 62.660156 76.558594 C 64.027344 79.632812 65.898438 82.414062 68.195312 84.734375 C 70.476562 87.070312 73.140625 88.957031 76.003906 90.472656 C 77.433594 91.234375 78.921875 91.894531 80.445312 92.5 C 81.972656 93.109375 83.519531 93.625 85.210938 94.222656 L 82.425781 100.402344 C 80.96875 99.597656 79.347656 98.742188 77.796875 97.804688 C 76.238281 96.867188 74.703125 95.859375 73.242188 94.742188 C 70.320312 92.519531 67.671875 89.886719 65.578125 86.886719 C 64.527344 85.390625 63.613281 83.8125 62.859375 82.171875 C 62.105469 80.53125 61.511719 78.832031 61.058594 77.117188 C 60.152344 73.679688 59.886719 70.15625 59.996094 66.703125" fill="#fff"/></g><g id="change7_21"><path d="M 24.382812 366.496094 L 26.414062 357.777344 L 66.882812 367.214844 L 62.011719 374.980469 L 24.382812 366.496094" fill="#3d4552"/></g><g id="change7_22"><path d="M 63.617188 379.433594 C 62.699219 379.433594 61.78125 379.324219 60.890625 379.101562 C 59.859375 378.847656 59.140625 377.925781 59.140625 376.859375 L 59.140625 368.34375 L 68.089844 368.34375 L 68.089844 376.859375 C 68.089844 377.925781 67.371094 378.847656 66.339844 379.101562 C 65.464844 379.320312 64.5625 379.429688 63.660156 379.433594 L 63.617188 379.433594" fill="#3d4552"/></g><g id="change7_23"><path d="M 4.476562 397.238281 C 3.5 397.238281 2.566406 396.925781 1.785156 396.335938 C 0.828125 395.617188 0.210938 394.570312 0.046875 393.386719 C -0.121094 392.199219 0.183594 391.023438 0.902344 390.066406 L 59.824219 311.890625 C 60.664062 310.773438 62.003906 310.105469 63.402344 310.105469 C 64.378906 310.105469 65.3125 310.417969 66.09375 311.007812 C 67.046875 311.726562 67.664062 312.777344 67.832031 313.960938 C 68 315.144531 67.695312 316.320312 66.972656 317.277344 L 8.054688 395.457031 C 7.210938 396.570312 5.875 397.238281 4.476562 397.238281" fill="#3d4552"/></g><g id="change8_7"><path d="M 49.933594 325.011719 L 0.90625 390.070312 C -0.195312 391.515625 -0.324219 393.464844 0.691406 395.210938 C 0.960938 395.675781 1.363281 396.042969 1.804688 396.351562 C 1.847656 396.382812 1.890625 396.414062 1.933594 396.4375 L 44.832031 339.890625 C 46.753906 337.355469 48.097656 334.425781 48.734375 331.308594 C 49.164062 329.214844 49.566406 327.117188 49.933594 325.011719" fill="#f9fcff"/></g><g id="change7_24"><path d="M 39.574219 381.714844 L 62.042969 366.507812 L 118.886719 366.566406 L 121.160156 375.457031 L 64.753906 375.457031 L 42.550781 390.261719 L 39.574219 381.714844" fill="#3d4552"/></g><g id="change7_25"><path d="M 63.375 182.871094 C 62.472656 182.867188 61.570312 182.757812 60.695312 182.539062 C 59.664062 182.285156 58.945312 181.363281 58.945312 180.296875 L 58.945312 113.078125 L 67.898438 113.078125 L 67.898438 180.296875 C 67.898438 181.363281 67.175781 182.285156 66.144531 182.539062 C 65.253906 182.761719 64.339844 182.871094 63.421875 182.871094 L 63.375 182.871094" fill="#3d4552"/></g><g id="change8_8"><path d="M 59.0625 128.273438 C 59.019531 128.273438 58.984375 128.261719 58.945312 128.257812 L 58.945312 166.433594 C 60.546875 165.589844 62.300781 164.945312 64.082031 164.667969 L 64.082031 128.488281 C 62.410156 128.40625 60.738281 128.285156 59.0625 128.273438" fill="#f9fcff"/></g><g id="change7_26"><path d="M 63.375 256.832031 C 62.472656 256.828125 61.570312 256.714844 60.695312 256.5 C 59.664062 256.246094 58.945312 255.324219 58.945312 254.257812 L 58.945312 178.292969 L 67.898438 178.292969 L 67.898438 254.257812 C 67.898438 255.324219 67.175781 256.246094 66.144531 256.5 C 65.253906 256.71875 64.335938 256.832031 63.417969 256.832031 L 63.375 256.832031" fill="#3d4552"/></g><g id="change8_9"><path d="M 58.945312 196.417969 L 58.945312 239.421875 C 60.476562 238.875 62.109375 238.660156 63.789062 238.644531 L 63.789062 196.773438 C 62.144531 196.953125 60.492188 196.859375 58.945312 196.417969" fill="#f9fcff"/></g><g id="change7_27"><path d="M 63.375 372.941406 C 62.472656 372.9375 61.570312 372.824219 60.695312 372.609375 C 59.664062 372.355469 58.945312 371.433594 58.945312 370.363281 L 58.945312 251.457031 L 67.898438 251.457031 L 67.898438 370.363281 C 67.898438 371.433594 67.175781 372.355469 66.144531 372.609375 C 65.253906 372.828125 64.339844 372.941406 63.421875 372.941406 L 63.375 372.941406" fill="#3d4552"/></g><g id="change8_10"><path d="M 58.945312 267.515625 L 58.945312 303.328125 C 60.003906 301.941406 61.25 300.671875 62.769531 299.5625 C 63.109375 299.3125 63.453125 299.136719 63.789062 299.023438 L 63.789062 268.066406 C 62.144531 268.042969 60.515625 267.886719 58.945312 267.515625" fill="#f9fcff"/></g><g id="change8_11"><path d="M 58.945312 362.660156 L 58.945312 370.363281 C 58.945312 371.433594 59.664062 372.355469 60.695312 372.609375 C 61.570312 372.824219 62.472656 372.9375 63.375 372.941406 L 63.421875 372.941406 C 63.542969 372.941406 63.664062 372.921875 63.789062 372.917969 L 63.789062 350.007812 C 62.023438 354.164062 60.417969 358.386719 58.945312 362.660156" fill="#f9fcff"/></g><g id="change7_28"><path d="M 145.871094 403.808594 C 144.667969 403.808594 143.539062 403.339844 142.691406 402.484375 L 60.210938 317.726562 C 58.484375 315.984375 58.496094 313.144531 60.246094 311.40625 C 61.089844 310.566406 62.210938 310.105469 63.398438 310.105469 C 64.601562 310.105469 65.730469 310.578125 66.578125 311.429688 L 149.058594 396.191406 C 149.890625 397.027344 150.351562 398.152344 150.347656 399.347656 C 150.339844 400.546875 149.871094 401.667969 149.023438 402.507812 C 148.179688 403.347656 147.058594 403.808594 145.871094 403.808594" fill="#3d4552"/></g><g id="change8_12"><path d="M 73.847656 330.035156 C 73.917969 330.675781 73.992188 331.316406 74.0625 331.957031 L 142.695312 402.484375 C 143.738281 403.535156 145.21875 404.011719 146.722656 403.726562 C 147.660156 403.550781 148.523438 403.054688 149.167969 402.355469 C 149.359375 402.144531 149.535156 401.917969 149.675781 401.675781 L 77.539062 328.277344 C 76.097656 326.8125 73.617188 327.992188 73.847656 330.035156" fill="#f9fcff"/></g><g clip-path="url(#a)" id="change7_1"><path d="M 31.609375 424.605469 C 31.160156 424.605469 30.714844 424.539062 30.28125 424.40625 C 29.140625 424.050781 28.207031 423.273438 27.648438 422.214844 C 27.09375 421.15625 26.980469 419.945312 27.335938 418.800781 L 59.121094 313.269531 C 59.710938 311.371094 61.425781 310.105469 63.398438 310.105469 C 63.847656 310.105469 64.296875 310.175781 64.726562 310.308594 C 65.871094 310.664062 66.804688 311.441406 67.359375 312.5 C 67.917969 313.558594 68.027344 314.769531 67.671875 315.910156 L 35.890625 421.445312 C 35.300781 423.34375 33.582031 424.605469 31.609375 424.605469" fill="#3d4552"/></g><g clip-path="url(#b)" id="change8_15"><path d="M 56.835938 321.523438 C 56.734375 321.652344 56.632812 321.769531 56.53125 321.875 L 27.332031 418.800781 C 26.976562 419.945312 27.097656 421.152344 27.652344 422.214844 C 28.203125 423.269531 29.136719 424.054688 30.285156 424.40625 C 30.800781 424.570312 31.339844 424.636719 31.875 424.601562 C 31.878906 424.597656 31.882812 424.597656 31.886719 424.59375 C 38.992188 401.546875 54.023438 351.4375 62.730469 322.355469 C 63.441406 319.976562 60.65625 318.113281 58.71875 319.664062 C 57.945312 320.28125 57.285156 320.941406 56.835938 321.523438" fill="#f9fcff"/></g><g id="change7_29"><path d="M 61.765625 190.113281 C 59.414062 190.113281 57.5 188.203125 57.5 185.851562 L 57.5 175.980469 C 57.5 173.632812 59.414062 171.71875 61.765625 171.71875 L 65.078125 171.71875 C 67.425781 171.71875 69.339844 173.632812 69.339844 175.980469 L 69.339844 185.851562 C 69.339844 188.203125 67.425781 190.113281 65.078125 190.113281 L 61.765625 190.113281" fill="#3d4552"/></g><g id="change9_7"><path d="M 69.167969 174.847656 C 68.667969 173.050781 67.03125 171.71875 65.078125 171.71875 L 61.765625 171.71875 C 59.414062 171.71875 57.5 173.632812 57.5 175.980469 L 57.5 184.460938 C 60.8125 180.546875 64.746094 177.101562 69.167969 174.847656" fill="#556073"/></g><g id="change7_30"><path d="M 61.765625 261.6875 C 59.414062 261.6875 57.5 259.777344 57.5 257.425781 L 57.5 247.554688 C 57.5 245.207031 59.414062 243.292969 61.765625 243.292969 L 65.078125 243.292969 C 67.425781 243.292969 69.339844 245.207031 69.339844 247.554688 L 69.339844 257.425781 C 69.339844 259.777344 67.425781 261.6875 65.078125 261.6875 L 61.765625 261.6875" fill="#3d4552"/></g><g id="change9_8"><path d="M 69.253906 246.714844 C 68.863281 244.765625 67.140625 243.292969 65.078125 243.292969 L 61.765625 243.292969 C 59.414062 243.292969 57.5 245.207031 57.5 247.554688 L 57.5 253.832031 C 60.917969 250.800781 64.964844 248.421875 69.253906 246.714844" fill="#556073"/></g><g id="change7_31"><path d="M 101.398438 101.949219 C 100.386719 112.941406 92.546875 121.210938 83.882812 120.414062 C 75.21875 119.621094 69.015625 110.0625 70.023438 99.066406 C 71.035156 88.070312 78.875 79.800781 87.539062 80.597656 C 96.203125 81.394531 102.410156 90.953125 101.398438 101.949219" fill="#3d4552"/></g><g id="change7_32"><path d="M 55.988281 84.046875 C 56.039062 82.441406 56.125 78.292969 59.332031 78.390625 C 61.878906 78.464844 66.074219 78.898438 67.699219 79.074219 C 68.085938 79.117188 68.386719 79.433594 68.410156 79.824219 L 68.808594 84.566406 L 77.273438 85.382812 C 77.273438 85.382812 73.921875 78.085938 71.285156 76.933594 C 68.324219 75.640625 58.789062 74.960938 56.394531 75.335938 C 54.28125 75.664062 48.417969 81.035156 48.324219 83.039062 C 48.230469 85.039062 55.988281 84.046875 55.988281 84.046875" fill="#3d4552"/></g><g id="change7_33"><path d="M 67.640625 117.203125 L 58.335938 116.710938 C 56.636719 116.621094 55.335938 115.171875 55.425781 113.472656 L 55.554688 111.03125 L 71.007812 111.855469 L 70.875 114.296875 C 70.785156 115.992188 69.335938 117.296875 67.640625 117.203125" fill="#3d4552"/></g><g id="change7_34"><path d="M 84.820312 85.363281 C 84.785156 85.359375 84.75 85.359375 84.714844 85.359375 L 84.71875 85.351562 L 42.617188 81.316406 C 35.886719 80.550781 29.644531 86.863281 28.667969 95.421875 C 27.695312 103.980469 32.359375 111.539062 39.089844 112.304688 L 81.832031 114.699219 L 81.835938 114.683594 C 88.0625 115.15625 93.769531 109.269531 94.671875 101.328125 C 95.59375 93.234375 91.183594 86.085938 84.820312 85.363281" fill="#3d4552"/></g><g id="change8_13"><path d="M 93.09375 101.148438 C 93.910156 93.960938 90.144531 87.605469 84.691406 86.949219 L 84.621094 86.945312 L 84.023438 86.882812 L 47.632812 83.394531 C 51.46875 86.335938 53.726562 91.96875 53.039062 98.140625 C 52.882812 99.429688 52.605469 100.703125 52.15625 101.933594 C 51.789062 102.949219 51.304688 103.929688 50.730469 104.871094 C 50.152344 105.8125 49.476562 106.703125 48.800781 107.597656 C 49.621094 106.839844 51.800781 105.472656 55.335938 100.199219 C 63.480469 102.886719 85.320312 104.847656 91.128906 102.613281 C 91.097656 103.570312 90.882812 106.652344 88.976562 109.917969 C 90.253906 108.71875 91.246094 107.207031 91.964844 105.566406 C 92.535156 104.234375 92.832031 102.832031 93.09375 101.148438" fill="#f9fcff"/></g><g id="change7_35"><path d="M 51.660156 85.378906 L 83.871094 88.464844 L 84.519531 88.535156 L 84.570312 88.535156 C 89.09375 89.136719 91.601562 94.742188 91.6875 98.757812 C 91.6875 98.757812 88.703125 90.789062 83.675781 90.460938 C 78.652344 90.132812 56.90625 87.527344 51.660156 85.378906" fill="#3d4552"/></g><g id="change8_14"><path d="M 30.578125 95.65625 C 30.660156 94.574219 30.78125 93.476562 31.105469 92.421875 C 31.226562 91.882812 31.445312 91.371094 31.617188 90.847656 C 31.847656 90.34375 32.042969 89.820312 32.328125 89.339844 C 32.847656 88.351562 33.519531 87.441406 34.296875 86.621094 C 35.070312 85.792969 35.988281 85.085938 37.023438 84.566406 C 38.046875 84.039062 39.191406 83.699219 40.375 83.636719 C 41.558594 83.585938 42.746094 83.777344 43.839844 84.242188 C 46.042969 85.167969 47.691406 87.015625 48.746094 89.03125 C 50.835938 93.15625 50.765625 98.097656 48.980469 102.21875 C 48.535156 103.257812 47.972656 104.242188 47.285156 105.136719 C 46.617188 106.039062 45.808594 106.84375 44.910156 107.511719 C 43.125 108.859375 40.804688 109.570312 38.644531 109.179688 C 40.828125 109.238281 42.929688 108.410156 44.472656 106.96875 C 45.265625 106.277344 45.964844 105.480469 46.527344 104.59375 C 47.105469 103.722656 47.59375 102.785156 47.953125 101.800781 C 48.683594 99.84375 49.046875 97.738281 48.96875 95.65625 C 48.914062 93.574219 48.4375 91.503906 47.484375 89.6875 C 46.5625 87.863281 45.128906 86.28125 43.308594 85.476562 C 42.410156 85.054688 41.40625 84.867188 40.417969 84.878906 C 39.421875 84.910156 38.433594 85.148438 37.503906 85.5625 C 36.566406 85.96875 35.710938 86.574219 34.949219 87.28125 C 34.175781 87.984375 33.488281 88.796875 32.921875 89.695312 C 31.710938 91.449219 31.015625 93.53125 30.578125 95.65625" fill="#f9fcff"/></g></g></svg>