<?xml version="1.0" encoding="UTF-8"?><svg xmlns="http://www.w3.org/2000/svg" xmlns:xlink="http://www.w3.org/1999/xlink" height="346.1" preserveAspectRatio="xMidYMid meet" version="1.0" viewBox="96.5 39.5 232.2 346.1" width="232.2" zoomAndPan="magnify"><g><g id="change1_1"><path d="M 245.035156 284.558594 L 233.605469 246.851562 C 232.769531 244.09375 234.328125 241.175781 237.089844 240.339844 L 308.703125 218.628906 C 311.464844 217.792969 314.382812 219.351562 315.21875 222.109375 L 326.648438 259.816406 L 278.445312 247.785156 L 245.035156 284.558594" fill="#fff"/></g><g id="change2_1"><path d="M 245.035156 284.558594 L 246.472656 284.125 L 235.039062 246.417969 C 234.929688 246.054688 234.878906 245.691406 234.878906 245.335938 C 234.882812 243.742188 235.914062 242.261719 237.523438 241.777344 L 309.140625 220.0625 C 309.503906 219.953125 309.867188 219.902344 310.222656 219.902344 C 311.816406 219.902344 313.296875 220.9375 313.78125 222.546875 L 324.445312 257.722656 L 278.808594 246.332031 C 278.273438 246.199219 277.703125 246.371094 277.335938 246.777344 L 243.925781 283.550781 L 245.035156 284.558594 L 246.472656 284.125 L 245.035156 284.558594 L 246.148438 285.566406 L 278.953125 249.460938 L 326.285156 261.273438 C 326.8125 261.402344 327.363281 261.242188 327.734375 260.851562 C 328.109375 260.460938 328.242188 259.898438 328.085938 259.382812 L 316.652344 221.675781 C 315.769531 218.773438 313.109375 216.902344 310.222656 216.902344 C 309.574219 216.902344 308.917969 216.996094 308.269531 217.191406 L 236.652344 238.90625 C 233.75 239.785156 231.878906 242.449219 231.878906 245.335938 C 231.878906 245.984375 231.972656 246.640625 232.167969 247.285156 L 243.601562 284.992188 C 243.757812 285.511719 244.179688 285.902344 244.707031 286.023438 C 245.234375 286.140625 245.785156 285.96875 246.148438 285.566406 L 245.035156 284.558594" fill="#231f20"/></g><g id="change1_2"><path d="M 278.445312 247.785156 L 326.648438 259.816406 L 326.957031 260.832031 C 327.792969 263.59375 326.234375 266.507812 323.472656 267.34375 L 251.855469 289.058594 C 249.097656 289.894531 246.183594 288.335938 245.34375 285.574219 L 245.035156 284.558594 L 278.445312 247.785156" fill="#fff"/></g><g id="change2_2"><path d="M 278.445312 247.785156 L 278.082031 249.242188 L 325.460938 261.066406 L 325.519531 261.265625 C 325.632812 261.632812 325.683594 261.992188 325.683594 262.351562 C 325.683594 263.941406 324.648438 265.425781 323.039062 265.910156 L 251.421875 287.621094 C 251.058594 287.730469 250.699219 287.78125 250.339844 287.78125 C 248.746094 287.78125 247.265625 286.746094 246.78125 285.140625 L 246.71875 284.9375 L 279.554688 248.796875 L 278.445312 247.785156 L 278.082031 249.242188 L 278.445312 247.785156 L 277.335938 246.777344 L 243.925781 283.550781 C 243.574219 283.941406 243.449219 284.492188 243.601562 284.996094 L 243.910156 286.011719 C 244.792969 288.910156 247.453125 290.785156 250.339844 290.78125 C 250.988281 290.78125 251.644531 290.6875 252.292969 290.492188 L 323.910156 268.78125 C 326.8125 267.898438 328.683594 265.238281 328.683594 262.351562 C 328.683594 261.703125 328.589844 261.046875 328.390625 260.398438 L 328.085938 259.382812 C 327.933594 258.878906 327.523438 258.488281 327.011719 258.363281 L 278.808594 246.332031 C 278.273438 246.199219 277.703125 246.371094 277.335938 246.777344 L 278.445312 247.785156" fill="#231f20"/></g><g id="change1_3"><path d="M 280.328125 254 L 326.648438 259.816406 L 326.957031 260.832031 C 327.792969 263.59375 326.234375 266.507812 323.472656 267.34375 L 251.855469 289.058594 C 249.097656 289.894531 246.183594 288.335938 245.34375 285.574219 L 245.035156 284.558594 L 280.328125 254" fill="#fff"/></g><g id="change2_3"><path d="M 280.328125 254 L 280.140625 255.488281 L 325.496094 261.183594 L 325.519531 261.265625 C 325.632812 261.632812 325.683594 261.992188 325.683594 262.351562 C 325.683594 263.941406 324.648438 265.425781 323.039062 265.910156 L 251.421875 287.621094 C 251.058594 287.730469 250.699219 287.78125 250.339844 287.78125 C 248.746094 287.78125 247.265625 286.746094 246.78125 285.140625 L 246.753906 285.054688 L 281.308594 255.132812 L 280.328125 254 L 280.140625 255.488281 L 280.328125 254 L 279.347656 252.867188 L 244.054688 283.425781 C 243.605469 283.8125 243.429688 284.425781 243.601562 284.996094 L 243.910156 286.011719 C 244.792969 288.910156 247.453125 290.785156 250.339844 290.78125 C 250.988281 290.78125 251.644531 290.6875 252.292969 290.492188 L 323.910156 268.78125 C 326.8125 267.898438 328.683594 265.238281 328.683594 262.351562 C 328.683594 261.703125 328.589844 261.046875 328.390625 260.398438 L 328.085938 259.382812 C 327.914062 258.816406 327.425781 258.402344 326.835938 258.328125 L 280.515625 252.511719 C 280.09375 252.460938 279.664062 252.589844 279.347656 252.867188 L 280.328125 254" fill="#231f20"/></g><g id="change1_4"><path d="M 231.714844 240.605469 L 313.324219 215.863281 L 315.152344 222.128906 L 283.179688 263.402344 L 233.605469 246.851562 L 231.714844 240.605469" fill="#fff"/></g><g id="change2_4"><path d="M 231.714844 240.605469 L 232.148438 242.039062 L 312.308594 217.738281 L 313.496094 221.816406 L 282.644531 261.640625 L 234.816406 245.675781 L 233.148438 240.171875 L 231.714844 240.605469 L 232.148438 242.039062 L 231.714844 240.605469 L 230.277344 241.039062 L 232.167969 247.289062 C 232.308594 247.753906 232.667969 248.121094 233.128906 248.273438 L 282.703125 264.824219 C 283.308594 265.027344 283.972656 264.824219 284.363281 264.320312 L 316.335938 223.050781 C 316.632812 222.667969 316.726562 222.171875 316.589844 221.710938 L 314.765625 215.445312 C 314.652344 215.058594 314.390625 214.734375 314.039062 214.546875 C 313.6875 214.355469 313.273438 214.3125 312.890625 214.429688 L 231.277344 239.171875 C 230.484375 239.410156 230.035156 240.246094 230.277344 241.039062 L 231.714844 240.605469" fill="#231f20"/></g><g id="change1_5"><path d="M 231.714844 240.605469 L 313.324219 215.863281 L 315.152344 222.128906 L 281.328125 257.292969 L 233.605469 246.851562 L 231.714844 240.605469" fill="#fff"/></g><g id="change2_5"><path d="M 231.714844 240.605469 L 232.148438 242.039062 L 312.308594 217.738281 L 313.46875 221.714844 L 280.828125 255.648438 L 234.785156 245.574219 L 233.148438 240.171875 L 231.714844 240.605469 L 232.148438 242.039062 L 231.714844 240.605469 L 230.277344 241.039062 L 232.167969 247.289062 C 232.328125 247.808594 232.753906 248.199219 233.285156 248.316406 L 281.007812 258.757812 C 281.515625 258.871094 282.046875 258.707031 282.40625 258.332031 L 316.230469 223.171875 C 316.601562 222.785156 316.742188 222.226562 316.589844 221.710938 L 314.765625 215.445312 C 314.652344 215.058594 314.390625 214.734375 314.039062 214.546875 C 313.6875 214.355469 313.273438 214.3125 312.890625 214.429688 L 231.277344 239.171875 C 230.484375 239.410156 230.035156 240.246094 230.277344 241.039062 L 231.714844 240.605469" fill="#231f20"/></g><g id="change1_6"><path d="M 147.507812 202.308594 L 149.242188 153.378906 C 149.371094 149.796875 152.375 146.996094 155.957031 147.125 L 248.886719 150.417969 C 252.46875 150.546875 255.269531 153.550781 255.144531 157.132812 L 253.410156 206.0625 L 201.582031 172.519531 L 147.507812 202.308594" fill="#fff"/></g><g id="change2_6"><path d="M 147.507812 202.308594 L 149.007812 202.359375 L 150.742188 153.433594 C 150.835938 150.738281 153.054688 148.617188 155.722656 148.621094 L 155.886719 148.621094 L 155.902344 148.625 L 248.835938 151.917969 C 251.527344 152.011719 253.648438 154.226562 253.648438 156.898438 L 253.644531 157.082031 L 252.003906 203.363281 L 202.394531 171.261719 C 201.933594 170.960938 201.339844 170.941406 200.855469 171.207031 L 146.785156 200.992188 L 147.507812 202.308594 L 149.007812 202.359375 L 147.507812 202.308594 L 148.230469 203.621094 L 201.519531 174.265625 L 252.59375 207.320312 C 253.050781 207.613281 253.625 207.640625 254.101562 207.390625 C 254.582031 207.140625 254.890625 206.65625 254.910156 206.113281 L 256.640625 157.1875 C 256.644531 157.089844 256.648438 156.992188 256.648438 156.898438 C 256.644531 152.613281 253.253906 149.074219 248.941406 148.917969 L 156.011719 145.625 L 155.957031 147.125 L 156.027344 145.625 C 155.914062 145.621094 155.8125 145.621094 155.722656 145.621094 C 151.4375 145.621094 147.898438 149.011719 147.746094 153.324219 L 146.011719 202.253906 C 145.988281 202.796875 146.261719 203.300781 146.722656 203.585938 C 147.183594 203.867188 147.757812 203.882812 148.230469 203.621094 L 147.507812 202.308594" fill="#231f20"/></g><g id="change1_7"><path d="M 201.582031 172.519531 L 253.410156 206.0625 L 253.363281 207.378906 C 253.234375 210.960938 250.230469 213.761719 246.648438 213.632812 L 153.71875 210.339844 C 150.136719 210.214844 147.335938 207.207031 147.460938 203.625 L 147.507812 202.308594 L 201.582031 172.519531" fill="#fff"/></g><g id="change2_7"><path d="M 201.582031 172.519531 L 200.765625 173.78125 L 251.882812 206.859375 L 251.863281 207.328125 C 251.769531 210.019531 249.554688 212.136719 246.882812 212.136719 L 246.695312 212.132812 L 246.699219 212.136719 L 153.769531 208.839844 C 151.078125 208.746094 148.957031 206.527344 148.957031 203.859375 L 148.960938 203.679688 L 148.976562 203.210938 L 202.304688 173.835938 L 201.582031 172.519531 L 200.765625 173.78125 L 201.582031 172.519531 L 200.855469 171.207031 L 146.785156 200.992188 C 146.324219 201.246094 146.027344 201.730469 146.011719 202.253906 L 145.964844 203.574219 C 145.960938 203.667969 145.957031 203.761719 145.957031 203.859375 C 145.960938 208.144531 149.351562 211.683594 153.664062 211.839844 L 246.59375 215.132812 L 246.601562 215.132812 C 246.691406 215.136719 246.785156 215.136719 246.882812 215.136719 C 251.167969 215.136719 254.707031 211.746094 254.863281 207.433594 L 254.910156 206.113281 C 254.929688 205.589844 254.667969 205.089844 254.226562 204.804688 L 202.394531 171.261719 C 201.933594 170.960938 201.339844 170.941406 200.855469 171.207031 L 201.582031 172.519531" fill="#231f20"/></g><g id="change1_8"><path d="M 201.296875 180.585938 L 253.410156 206.0625 L 253.363281 207.378906 C 253.234375 210.960938 250.230469 213.761719 246.648438 213.632812 L 153.71875 210.339844 C 150.136719 210.214844 147.335938 207.207031 147.460938 203.625 L 147.507812 202.308594 L 201.296875 180.585938" fill="#fff"/></g><g id="change2_8"><path d="M 201.296875 180.585938 L 200.636719 181.933594 L 251.875 206.980469 L 251.863281 207.328125 C 251.769531 210.019531 249.554688 212.136719 246.882812 212.136719 L 246.695312 212.132812 L 246.699219 212.136719 L 153.769531 208.839844 C 151.078125 208.746094 148.957031 206.527344 148.957031 203.859375 L 148.960938 203.679688 L 148.972656 203.335938 L 201.855469 181.976562 L 201.296875 180.585938 L 200.636719 181.933594 L 201.296875 180.585938 L 200.734375 179.195312 L 146.945312 200.917969 C 146.398438 201.140625 146.03125 201.660156 146.011719 202.253906 L 145.964844 203.574219 C 145.960938 203.667969 145.957031 203.761719 145.957031 203.859375 C 145.960938 208.144531 149.351562 211.683594 153.664062 211.839844 L 246.59375 215.132812 L 246.601562 215.132812 C 246.691406 215.136719 246.785156 215.136719 246.882812 215.136719 C 251.167969 215.136719 254.707031 211.746094 254.863281 207.433594 L 254.910156 206.113281 C 254.929688 205.523438 254.601562 204.976562 254.070312 204.714844 L 201.953125 179.238281 C 201.574219 179.050781 201.125 179.035156 200.734375 179.195312 L 201.296875 180.585938" fill="#231f20"/></g><g id="change1_9"><path d="M 149.53125 145.273438 L 255.429688 149.027344 L 255.058594 157.128906 L 200.863281 192.785156 L 149.242188 153.378906 L 149.53125 145.273438" fill="#fff"/></g><g id="change2_9"><path d="M 149.53125 145.273438 L 149.480469 146.773438 L 253.863281 150.472656 L 253.59375 156.296875 L 200.925781 190.945312 L 150.769531 152.65625 L 151.03125 145.328125 L 149.53125 145.273438 L 149.480469 146.773438 L 149.53125 145.273438 L 148.03125 145.21875 L 147.746094 153.324219 C 147.726562 153.8125 147.945312 154.273438 148.335938 154.570312 L 199.953125 193.976562 C 200.460938 194.363281 201.152344 194.386719 201.6875 194.035156 L 255.882812 158.382812 C 256.28125 158.117188 256.53125 157.679688 256.554688 157.199219 L 256.929688 149.097656 C 256.945312 148.695312 256.804688 148.304688 256.535156 148.011719 C 256.261719 147.714844 255.882812 147.542969 255.484375 147.527344 L 149.585938 143.773438 C 148.757812 143.746094 148.0625 144.390625 148.03125 145.21875 L 149.53125 145.273438" fill="#231f20"/></g><g id="change1_10"><path d="M 149.53125 145.273438 L 255.429688 149.027344 L 255.058594 157.128906 L 201.144531 184.855469 L 149.242188 153.378906 L 149.53125 145.273438" fill="#fff"/></g><g id="change2_10"><path d="M 149.53125 145.273438 L 149.480469 146.773438 L 253.863281 150.472656 L 253.597656 156.191406 L 201.203125 183.136719 L 150.773438 152.550781 L 151.03125 145.328125 L 149.53125 145.273438 L 149.480469 146.773438 L 149.53125 145.273438 L 148.03125 145.21875 L 147.746094 153.324219 C 147.726562 153.871094 148 154.378906 148.464844 154.660156 L 200.367188 186.136719 C 200.8125 186.410156 201.367188 186.429688 201.828125 186.191406 L 255.742188 158.464844 C 256.21875 158.21875 256.53125 157.734375 256.554688 157.199219 L 256.929688 149.097656 C 256.945312 148.695312 256.804688 148.304688 256.535156 148.011719 C 256.261719 147.714844 255.882812 147.542969 255.484375 147.527344 L 149.585938 143.773438 C 148.757812 143.746094 148.0625 144.390625 148.03125 145.21875 L 149.53125 145.273438" fill="#231f20"/></g><g id="change1_11"><path d="M 198.125 72.222656 L 194.457031 45.488281 C 194.1875 43.53125 192.382812 42.164062 190.425781 42.429688 L 139.652344 49.398438 C 137.695312 49.664062 136.328125 51.46875 136.59375 53.425781 L 140.261719 80.160156 L 166.820312 58.890625 L 198.125 72.222656" fill="#fff"/></g><g id="change2_11"><path d="M 198.125 72.222656 L 199.609375 72.015625 L 195.941406 45.28125 C 195.589844 42.738281 193.417969 40.898438 190.917969 40.898438 C 190.691406 40.898438 190.457031 40.910156 190.21875 40.945312 L 190.222656 40.945312 L 139.449219 47.910156 C 136.90625 48.261719 135.0625 50.429688 135.0625 52.933594 C 135.0625 53.164062 135.078125 53.398438 135.109375 53.628906 L 138.777344 80.363281 C 138.847656 80.898438 139.203125 81.351562 139.707031 81.550781 C 140.207031 81.753906 140.777344 81.667969 141.199219 81.328125 L 167.058594 60.621094 L 197.535156 73.601562 C 198.03125 73.8125 198.605469 73.742188 199.035156 73.414062 C 199.464844 73.085938 199.683594 72.550781 199.609375 72.015625 L 198.125 72.222656 L 198.710938 70.839844 L 167.40625 57.507812 C 166.902344 57.292969 166.3125 57.375 165.882812 57.71875 L 141.390625 77.335938 L 138.082031 53.222656 C 138.066406 53.125 138.0625 53.027344 138.0625 52.933594 C 138.0625 51.921875 138.8125 51.023438 139.855469 50.882812 L 190.632812 43.917969 L 190.636719 43.914062 C 190.726562 43.902344 190.820312 43.898438 190.917969 43.898438 C 191.933594 43.898438 192.828125 44.652344 192.96875 45.691406 L 196.636719 72.425781 L 198.125 72.222656 L 198.710938 70.839844 L 198.125 72.222656" fill="#231f20"/></g><g id="change1_12"><path d="M 166.820312 58.890625 L 140.261719 80.160156 L 140.359375 80.878906 C 140.628906 82.835938 142.433594 84.203125 144.390625 83.933594 L 195.164062 76.96875 C 197.121094 76.699219 198.488281 74.898438 198.222656 72.941406 L 198.125 72.222656 L 166.820312 58.890625" fill="#fff"/></g><g id="change2_12"><path d="M 166.820312 58.890625 L 165.882812 57.71875 L 139.324219 78.988281 C 138.914062 79.316406 138.703125 79.84375 138.777344 80.363281 L 138.875 81.085938 C 139.226562 83.625 141.394531 85.46875 143.898438 85.46875 C 144.128906 85.46875 144.359375 85.453125 144.589844 85.421875 L 144.59375 85.421875 L 195.371094 78.453125 C 197.914062 78.101562 199.753906 75.933594 199.753906 73.433594 C 199.753906 73.203125 199.738281 72.96875 199.707031 72.738281 L 199.609375 72.019531 C 199.539062 71.496094 199.195312 71.046875 198.710938 70.839844 L 167.40625 57.507812 C 166.902344 57.292969 166.3125 57.375 165.882812 57.71875 L 166.820312 58.890625 L 166.234375 60.269531 L 197.535156 73.601562 L 198.125 72.222656 L 196.636719 72.421875 L 196.734375 73.144531 C 196.75 73.242188 196.753906 73.339844 196.753906 73.433594 C 196.757812 74.445312 196.003906 75.34375 194.960938 75.484375 L 144.1875 82.449219 L 144.191406 82.449219 C 144.089844 82.460938 143.992188 82.46875 143.898438 82.46875 C 142.882812 82.46875 141.988281 81.714844 141.847656 80.675781 L 141.746094 79.953125 L 140.261719 80.160156 L 141.199219 81.328125 L 167.757812 60.058594 L 166.820312 58.890625 L 166.234375 60.269531 L 166.820312 58.890625" fill="#231f20"/></g><g id="change1_13"><path d="M 167.425781 63.296875 L 140.261719 80.160156 L 140.359375 80.878906 C 140.628906 82.835938 142.433594 84.203125 144.390625 83.933594 L 195.164062 76.96875 C 197.121094 76.699219 198.488281 74.898438 198.222656 72.941406 L 198.125 72.222656 L 167.425781 63.296875" fill="#fff"/></g><g id="change2_13"><path d="M 167.425781 63.296875 L 166.632812 62.019531 L 139.472656 78.886719 C 138.96875 79.195312 138.695312 79.777344 138.777344 80.363281 L 138.875 81.085938 C 139.226562 83.625 141.394531 85.46875 143.898438 85.46875 C 144.128906 85.46875 144.359375 85.453125 144.589844 85.421875 L 144.59375 85.421875 L 195.371094 78.453125 C 197.914062 78.101562 199.753906 75.933594 199.753906 73.433594 C 199.753906 73.203125 199.738281 72.96875 199.707031 72.738281 L 199.609375 72.019531 C 199.53125 71.429688 199.113281 70.945312 198.542969 70.78125 L 167.84375 61.855469 C 167.4375 61.738281 166.992188 61.796875 166.632812 62.019531 L 167.425781 63.296875 L 167.007812 64.734375 L 197.703125 73.660156 L 198.125 72.222656 L 196.636719 72.421875 L 196.734375 73.144531 C 196.75 73.242188 196.753906 73.339844 196.753906 73.433594 C 196.757812 74.445312 196.003906 75.34375 194.960938 75.484375 L 144.1875 82.449219 L 144.191406 82.449219 C 144.089844 82.460938 143.992188 82.46875 143.898438 82.46875 C 142.882812 82.46875 141.988281 81.714844 141.847656 80.675781 L 141.746094 79.953125 L 140.261719 80.160156 L 141.054688 81.433594 L 168.21875 64.570312 L 167.425781 63.296875 L 167.007812 64.734375 L 167.425781 63.296875" fill="#231f20"/></g><g id="change1_14"><path d="M 193.847656 41.058594 L 135.988281 48.996094 L 136.640625 53.421875 L 168.339844 69.960938 L 194.457031 45.488281 L 193.847656 41.058594" fill="#fff"/></g><g id="change2_14"><path d="M 193.847656 41.058594 L 193.644531 39.574219 L 135.785156 47.511719 C 135.386719 47.566406 135.027344 47.777344 134.789062 48.097656 C 134.546875 48.417969 134.445312 48.820312 134.503906 49.21875 L 135.15625 53.640625 C 135.230469 54.117188 135.519531 54.527344 135.949219 54.75 L 167.644531 71.289062 C 168.210938 71.585938 168.898438 71.492188 169.363281 71.054688 L 195.480469 46.582031 C 195.835938 46.25 196.007812 45.765625 195.941406 45.28125 L 195.335938 40.855469 C 195.28125 40.464844 195.070312 40.105469 194.757812 39.863281 C 194.441406 39.625 194.035156 39.519531 193.644531 39.574219 L 193.847656 41.058594 L 192.363281 41.265625 L 192.863281 44.921875 L 168.089844 68.136719 L 138.015625 52.445312 L 137.695312 50.277344 L 194.054688 42.546875 L 193.847656 41.058594 L 192.363281 41.265625 L 193.847656 41.058594" fill="#231f20"/></g><g id="change1_15"><path d="M 193.847656 41.058594 L 135.988281 48.996094 L 136.640625 53.421875 L 167.742188 65.628906 L 194.457031 45.488281 L 193.847656 41.058594" fill="#fff"/></g><g id="change2_15"><path d="M 193.847656 41.058594 L 193.644531 39.574219 L 135.785156 47.511719 C 135.386719 47.566406 135.027344 47.777344 134.789062 48.097656 C 134.546875 48.417969 134.445312 48.820312 134.503906 49.21875 L 135.15625 53.640625 C 135.238281 54.171875 135.59375 54.621094 136.09375 54.816406 L 167.195312 67.023438 C 167.679688 67.214844 168.230469 67.140625 168.648438 66.828125 L 195.359375 46.683594 C 195.796875 46.355469 196.015625 45.824219 195.941406 45.28125 L 195.335938 40.855469 C 195.28125 40.464844 195.070312 40.105469 194.757812 39.863281 C 194.441406 39.625 194.035156 39.519531 193.644531 39.574219 L 193.847656 41.058594 L 192.363281 41.265625 L 192.851562 44.820312 L 167.511719 63.925781 L 138 52.339844 L 137.695312 50.277344 L 194.054688 42.546875 L 193.847656 41.058594 L 192.363281 41.265625 L 193.847656 41.058594" fill="#231f20"/></g><g id="change1_16"><path d="M 161.910156 116.109375 L 143.199219 96.667969 C 141.832031 95.246094 139.566406 95.199219 138.144531 96.570312 L 101.214844 132.105469 C 99.792969 133.476562 99.746094 135.738281 101.117188 137.160156 L 119.824219 156.605469 L 128.761719 123.773438 L 161.910156 116.109375" fill="#fff"/></g><g id="change2_16"><path d="M 161.910156 116.109375 L 162.992188 115.070312 L 144.28125 95.628906 C 143.289062 94.59375 141.949219 94.070312 140.621094 94.070312 C 139.363281 94.070312 138.085938 94.542969 137.105469 95.488281 L 100.175781 131.023438 C 99.144531 132.015625 98.617188 133.355469 98.617188 134.683594 C 98.617188 135.945312 99.09375 137.222656 100.035156 138.203125 L 118.746094 157.644531 C 119.121094 158.035156 119.675781 158.191406 120.199219 158.058594 C 120.722656 157.925781 121.132812 157.523438 121.273438 157 L 129.972656 125.035156 L 162.25 117.574219 C 162.777344 117.449219 163.195312 117.058594 163.347656 116.539062 C 163.503906 116.019531 163.367188 115.460938 162.992188 115.070312 L 161.910156 116.109375 L 161.574219 114.648438 L 128.421875 122.3125 C 127.886719 122.4375 127.457031 122.851562 127.3125 123.382812 L 119.074219 153.660156 L 102.199219 136.121094 C 101.808594 135.714844 101.621094 135.203125 101.617188 134.683594 C 101.621094 134.132812 101.828125 133.597656 102.253906 133.1875 L 139.183594 97.648438 L 139.1875 97.648438 C 139.59375 97.257812 140.101562 97.070312 140.621094 97.070312 C 141.171875 97.070312 141.707031 97.28125 142.121094 97.707031 L 160.828125 117.152344 L 161.910156 116.109375 L 161.574219 114.648438 L 161.910156 116.109375" fill="#231f20"/></g><g id="change1_17"><path d="M 128.761719 123.773438 L 119.824219 156.605469 L 120.328125 157.132812 C 121.699219 158.554688 123.964844 158.597656 125.386719 157.226562 L 162.316406 121.691406 C 163.738281 120.320312 163.78125 118.058594 162.414062 116.636719 L 161.910156 116.109375 L 128.761719 123.773438" fill="#fff"/></g><g id="change2_17"><path d="M 128.761719 123.773438 L 127.3125 123.382812 L 118.378906 156.210938 C 118.242188 156.71875 118.378906 157.265625 118.742188 157.644531 L 119.246094 158.167969 L 119.25 158.171875 C 120.242188 159.203125 121.582031 159.726562 122.90625 159.726562 C 124.167969 159.726562 125.445312 159.25 126.425781 158.308594 L 163.355469 122.773438 C 164.390625 121.78125 164.914062 120.441406 164.914062 119.113281 C 164.914062 117.851562 164.4375 116.574219 163.492188 115.59375 L 163.496094 115.597656 L 162.992188 115.074219 C 162.628906 114.691406 162.089844 114.53125 161.574219 114.648438 L 128.421875 122.3125 C 127.886719 122.4375 127.457031 122.851562 127.3125 123.382812 L 128.761719 123.773438 L 129.097656 125.234375 L 162.25 117.574219 L 161.910156 116.109375 L 160.828125 117.148438 L 161.328125 117.671875 L 161.332031 117.675781 C 161.722656 118.082031 161.910156 118.59375 161.914062 119.113281 C 161.910156 119.664062 161.703125 120.199219 161.277344 120.609375 L 124.347656 156.144531 C 123.941406 156.535156 123.429688 156.722656 122.90625 156.726562 C 122.355469 156.722656 121.820312 156.515625 121.410156 156.089844 L 121.410156 156.09375 L 120.90625 155.566406 L 119.824219 156.605469 L 121.273438 157 L 130.207031 124.167969 L 128.761719 123.773438 L 129.097656 125.234375 L 128.761719 123.773438" fill="#231f20"/></g><g id="change1_18"><path d="M 131.84375 126.980469 L 119.824219 156.605469 L 120.328125 157.132812 C 121.699219 158.554688 123.964844 158.597656 125.386719 157.226562 L 162.316406 121.691406 C 163.738281 120.320312 163.78125 118.058594 162.414062 116.636719 L 161.910156 116.109375 L 131.84375 126.980469" fill="#fff"/></g><g id="change2_18"><path d="M 131.84375 126.980469 L 130.453125 126.414062 L 118.4375 156.042969 C 118.214844 156.589844 118.335938 157.21875 118.742188 157.644531 L 119.246094 158.167969 L 119.25 158.171875 C 120.242188 159.203125 121.582031 159.726562 122.90625 159.726562 C 124.167969 159.726562 125.445312 159.25 126.425781 158.308594 L 163.355469 122.773438 C 164.390625 121.78125 164.914062 120.441406 164.914062 119.113281 C 164.914062 117.851562 164.4375 116.574219 163.492188 115.59375 L 163.496094 115.597656 L 162.992188 115.074219 C 162.585938 114.644531 161.960938 114.5 161.402344 114.699219 L 131.335938 125.566406 C 130.9375 125.710938 130.613281 126.023438 130.453125 126.414062 L 131.84375 126.980469 L 132.355469 128.390625 L 162.421875 117.523438 L 161.910156 116.109375 L 160.828125 117.148438 L 161.328125 117.671875 L 161.332031 117.675781 C 161.722656 118.082031 161.910156 118.59375 161.914062 119.113281 C 161.910156 119.664062 161.703125 120.199219 161.277344 120.609375 L 124.347656 156.144531 C 123.941406 156.535156 123.429688 156.722656 122.90625 156.726562 C 122.355469 156.722656 121.820312 156.515625 121.410156 156.089844 L 121.410156 156.09375 L 120.90625 155.566406 L 119.824219 156.605469 L 121.214844 157.171875 L 133.234375 127.542969 L 131.84375 126.980469 L 132.355469 128.390625 L 131.84375 126.980469" fill="#231f20"/></g><g id="change1_19"><path d="M 140.101562 93.445312 L 98.015625 133.941406 L 101.152344 137.128906 L 136.507812 131.828125 L 143.199219 96.667969 L 140.101562 93.445312" fill="#fff"/></g><g id="change2_19"><path d="M 140.101562 93.445312 L 139.0625 92.367188 L 96.976562 132.859375 C 96.6875 133.136719 96.523438 133.519531 96.519531 133.921875 C 96.511719 134.320312 96.667969 134.707031 96.949219 134.992188 L 100.082031 138.179688 C 100.417969 138.523438 100.898438 138.683594 101.375 138.613281 L 136.730469 133.3125 C 137.363281 133.214844 137.863281 132.734375 137.980469 132.109375 L 144.675781 96.949219 C 144.765625 96.46875 144.617188 95.976562 144.28125 95.628906 L 141.179688 92.40625 C 140.605469 91.808594 139.65625 91.789062 139.0625 92.367188 L 140.101562 93.445312 L 139.019531 94.488281 L 141.582031 97.148438 L 135.234375 130.503906 L 101.683594 135.53125 L 100.148438 133.96875 L 141.140625 94.527344 L 140.101562 93.445312 L 139.019531 94.488281 L 140.101562 93.445312" fill="#231f20"/></g><g id="change1_20"><path d="M 140.101562 93.445312 L 98.015625 133.941406 L 101.152344 137.128906 L 133.476562 128.675781 L 143.199219 96.667969 L 140.101562 93.445312" fill="#fff"/></g><g id="change2_20"><path d="M 140.101562 93.445312 L 139.0625 92.367188 L 96.976562 132.859375 C 96.6875 133.136719 96.523438 133.519531 96.519531 133.921875 C 96.511719 134.320312 96.667969 134.707031 96.949219 134.992188 L 100.082031 138.179688 C 100.457031 138.5625 101.011719 138.714844 101.53125 138.582031 L 133.855469 130.128906 C 134.359375 129.996094 134.761719 129.613281 134.914062 129.113281 L 144.636719 97.101562 C 144.792969 96.582031 144.660156 96.019531 144.28125 95.628906 L 141.179688 92.40625 C 140.605469 91.808594 139.65625 91.789062 139.0625 92.367188 L 140.101562 93.445312 L 139.019531 94.488281 L 141.511719 97.074219 L 132.285156 127.4375 L 101.613281 135.457031 L 100.148438 133.96875 L 141.140625 94.527344 L 140.101562 93.445312 L 139.019531 94.488281 L 140.101562 93.445312" fill="#231f20"/></g><g id="change1_21"><path d="M 245.316406 337.175781 L 225.8125 294.730469 C 224.382812 291.625 220.710938 290.261719 217.601562 291.691406 L 136.988281 328.734375 C 133.882812 330.164062 132.519531 333.839844 133.945312 336.945312 L 153.449219 379.390625 L 186.761719 330.816406 L 245.316406 337.175781" fill="#fff"/></g><g id="change2_21"><path d="M 245.316406 337.175781 L 246.679688 336.546875 L 227.171875 294.105469 C 225.878906 291.285156 223.09375 289.621094 220.183594 289.621094 C 219.109375 289.621094 218.011719 289.851562 216.976562 290.328125 L 136.359375 327.371094 C 133.542969 328.667969 131.878906 331.453125 131.878906 334.363281 C 131.878906 335.4375 132.109375 336.535156 132.585938 337.570312 L 152.089844 380.015625 C 152.3125 380.507812 152.785156 380.839844 153.324219 380.886719 C 153.863281 380.929688 154.382812 380.683594 154.6875 380.238281 L 187.492188 332.402344 L 245.152344 338.667969 C 245.691406 338.726562 246.21875 338.488281 246.535156 338.050781 C 246.851562 337.613281 246.90625 337.039062 246.679688 336.546875 L 245.316406 337.175781 L 245.476562 335.683594 L 186.925781 329.324219 C 186.378906 329.265625 185.835938 329.511719 185.527344 329.96875 L 153.710938 376.359375 L 135.308594 336.320312 C 135.015625 335.679688 134.882812 335.019531 134.878906 334.363281 C 134.882812 332.585938 135.894531 330.886719 137.613281 330.097656 L 218.230469 293.054688 C 218.867188 292.761719 219.527344 292.621094 220.183594 292.621094 C 221.960938 292.625 223.65625 293.636719 224.445312 295.355469 L 243.953125 337.800781 L 245.316406 337.175781 L 245.476562 335.683594 L 245.316406 337.175781" fill="#231f20"/></g><g id="change1_22"><path d="M 186.761719 330.816406 L 153.449219 379.390625 L 153.976562 380.535156 C 155.40625 383.640625 159.082031 385 162.1875 383.574219 L 242.800781 346.527344 C 245.90625 345.101562 247.269531 341.425781 245.84375 338.320312 L 245.316406 337.175781 L 186.761719 330.816406" fill="#fff"/></g><g id="change2_22"><path d="M 186.761719 330.816406 L 185.527344 329.96875 L 152.214844 378.542969 C 151.914062 378.976562 151.867188 379.539062 152.089844 380.015625 L 152.613281 381.160156 C 153.910156 383.976562 156.695312 385.640625 159.605469 385.640625 C 160.679688 385.640625 161.777344 385.410156 162.8125 384.9375 L 243.429688 347.890625 C 246.246094 346.59375 247.910156 343.808594 247.90625 340.898438 C 247.90625 339.824219 247.679688 338.726562 247.203125 337.691406 L 246.679688 336.546875 C 246.460938 336.070312 246 335.738281 245.476562 335.683594 L 186.925781 329.324219 C 186.378906 329.265625 185.835938 329.511719 185.527344 329.96875 L 186.761719 330.816406 L 186.601562 332.304688 L 244.308594 338.574219 L 244.480469 338.945312 C 244.769531 339.582031 244.90625 340.242188 244.90625 340.898438 C 244.90625 342.675781 243.894531 344.375 242.175781 345.164062 L 161.5625 382.210938 C 160.921875 382.503906 160.261719 382.640625 159.605469 382.640625 C 157.828125 382.636719 156.128906 381.628906 155.339844 379.90625 L 155.167969 379.535156 L 188 331.664062 L 186.761719 330.816406 L 186.601562 332.304688 L 186.761719 330.816406" fill="#231f20"/></g><g id="change1_23"><path d="M 189.976562 337.808594 L 153.449219 379.390625 L 153.976562 380.535156 C 155.40625 383.640625 159.082031 385 162.1875 383.574219 L 242.800781 346.527344 C 245.90625 345.101562 247.269531 341.425781 245.84375 338.320312 L 245.316406 337.175781 L 189.976562 337.808594" fill="#fff"/></g><g id="change2_23"><path d="M 189.976562 337.808594 L 188.851562 336.820312 L 152.324219 378.402344 C 151.933594 378.847656 151.839844 379.476562 152.089844 380.015625 L 152.613281 381.160156 C 153.910156 383.976562 156.695312 385.640625 159.605469 385.640625 C 160.679688 385.640625 161.777344 385.410156 162.8125 384.9375 L 243.429688 347.890625 C 246.246094 346.59375 247.910156 343.808594 247.90625 340.898438 C 247.90625 339.824219 247.679688 338.726562 247.203125 337.691406 L 246.679688 336.546875 C 246.433594 336.011719 245.890625 335.667969 245.300781 335.675781 L 189.960938 336.308594 C 189.535156 336.3125 189.128906 336.5 188.851562 336.820312 L 189.976562 337.808594 L 189.996094 339.308594 L 244.359375 338.6875 L 244.480469 338.945312 C 244.769531 339.582031 244.90625 340.242188 244.90625 340.898438 C 244.90625 342.675781 243.894531 344.375 242.175781 345.164062 L 161.5625 382.210938 C 160.921875 382.503906 160.261719 382.640625 159.605469 382.640625 C 157.828125 382.636719 156.128906 381.628906 155.339844 379.90625 L 155.21875 379.648438 L 191.105469 338.796875 L 189.976562 337.808594 L 189.996094 339.308594 L 189.976562 337.808594" fill="#231f20"/></g><g id="change1_24"><path d="M 222.582031 287.699219 L 130.714844 329.914062 L 134.023438 336.910156 L 194.839844 348.390625 L 225.8125 294.730469 L 222.582031 287.699219" fill="#fff"/></g><g id="change2_24"><path d="M 222.582031 287.699219 L 221.953125 286.335938 L 130.089844 328.554688 C 129.726562 328.71875 129.441406 329.027344 129.304688 329.402344 C 129.167969 329.777344 129.1875 330.195312 129.359375 330.558594 L 132.664062 337.550781 C 132.871094 337.988281 133.269531 338.296875 133.742188 338.386719 L 194.5625 349.867188 C 195.191406 349.984375 195.820312 349.695312 196.140625 349.140625 L 227.109375 295.480469 C 227.351562 295.058594 227.378906 294.546875 227.175781 294.105469 L 223.945312 287.074219 C 223.777344 286.714844 223.472656 286.429688 223.101562 286.292969 C 222.730469 286.15625 222.3125 286.171875 221.953125 286.335938 L 222.582031 287.699219 L 221.21875 288.324219 L 224.125 294.652344 L 194.074219 346.722656 L 135.050781 335.578125 L 132.71875 330.644531 L 223.207031 289.0625 L 222.582031 287.699219 L 221.21875 288.324219 L 222.582031 287.699219" fill="#231f20"/></g><g id="change1_25"><path d="M 222.582031 287.699219 L 130.714844 329.914062 L 134.023438 336.910156 L 191.679688 341.515625 L 225.8125 294.730469 L 222.582031 287.699219" fill="#fff"/></g><g id="change2_25"><path d="M 222.582031 287.699219 L 221.953125 286.335938 L 130.089844 328.554688 C 129.726562 328.71875 129.441406 329.027344 129.304688 329.402344 C 129.167969 329.777344 129.1875 330.195312 129.359375 330.558594 L 132.664062 337.550781 C 132.894531 338.035156 133.367188 338.363281 133.902344 338.40625 L 191.5625 343.011719 C 192.082031 343.050781 192.585938 342.820312 192.890625 342.398438 L 227.023438 295.613281 C 227.34375 295.175781 227.402344 294.601562 227.175781 294.105469 L 223.945312 287.074219 C 223.777344 286.714844 223.472656 286.429688 223.101562 286.292969 C 222.730469 286.15625 222.3125 286.171875 221.953125 286.335938 L 222.582031 287.699219 L 221.21875 288.324219 L 224.078125 294.558594 L 190.964844 339.953125 L 135.007812 335.484375 L 132.71875 330.644531 L 223.207031 289.0625 L 222.582031 287.699219 L 221.21875 288.324219 L 222.582031 287.699219" fill="#231f20"/></g><g id="change1_26"><path d="M 99.945312 247.8125 L 119.75 213.554688 C 121.199219 211.050781 124.40625 210.191406 126.914062 211.640625 L 191.976562 249.253906 C 194.484375 250.703125 195.34375 253.910156 193.894531 256.417969 L 174.089844 290.675781 L 149.835938 247.074219 L 99.945312 247.8125" fill="#fff"/></g><g id="change2_26"><path d="M 99.945312 247.8125 L 101.242188 248.5625 L 121.046875 214.304688 C 121.742188 213.105469 122.996094 212.4375 124.296875 212.433594 C 124.933594 212.433594 125.570312 212.59375 126.164062 212.9375 L 191.226562 250.550781 C 192.429688 251.246094 193.097656 252.5 193.097656 253.800781 C 193.097656 254.433594 192.9375 255.074219 192.59375 255.667969 L 174.113281 287.632812 L 151.144531 246.34375 C 150.878906 245.863281 150.363281 245.566406 149.8125 245.574219 L 99.921875 246.3125 L 99.945312 247.8125 L 101.242188 248.5625 L 99.945312 247.8125 L 99.96875 249.3125 L 148.960938 248.589844 L 172.777344 291.402344 C 173.039062 291.875 173.535156 292.171875 174.078125 292.175781 C 174.617188 292.179688 175.117188 291.894531 175.386719 291.425781 L 195.191406 257.171875 C 195.804688 256.109375 196.097656 254.945312 196.097656 253.800781 C 196.101562 251.472656 194.886719 249.203125 192.726562 247.953125 L 127.664062 210.339844 L 127.664062 210.34375 C 126.605469 209.726562 125.4375 209.433594 124.296875 209.433594 C 121.96875 209.433594 119.699219 210.644531 118.449219 212.804688 L 98.648438 247.0625 C 98.375 247.53125 98.378906 248.105469 98.652344 248.570312 C 98.925781 249.039062 99.425781 249.320312 99.96875 249.3125 L 99.945312 247.8125" fill="#231f20"/></g><g id="change1_27"><path d="M 149.835938 247.074219 L 174.089844 290.675781 L 173.558594 291.597656 C 172.105469 294.105469 168.898438 294.960938 166.390625 293.511719 L 101.328125 255.898438 C 98.820312 254.449219 97.964844 251.242188 99.414062 248.734375 L 99.945312 247.8125 L 149.835938 247.074219" fill="#fff"/></g><g id="change2_27"><path d="M 149.835938 247.074219 L 148.523438 247.804688 L 172.367188 290.660156 L 172.257812 290.847656 C 171.5625 292.046875 170.308594 292.714844 169.011719 292.71875 C 168.375 292.71875 167.738281 292.558594 167.140625 292.214844 L 102.078125 254.601562 L 102.078125 254.597656 C 100.878906 253.90625 100.210938 252.652344 100.207031 251.355469 C 100.210938 250.71875 100.367188 250.078125 100.710938 249.488281 L 100.710938 249.484375 L 100.820312 249.300781 L 149.855469 248.574219 L 149.835938 247.074219 L 148.523438 247.804688 L 149.835938 247.074219 L 149.8125 245.574219 L 99.921875 246.3125 C 99.398438 246.320312 98.910156 246.605469 98.648438 247.0625 L 98.113281 247.984375 C 97.503906 249.042969 97.207031 250.210938 97.207031 251.355469 C 97.207031 253.679688 98.417969 255.949219 100.578125 257.195312 L 165.640625 294.8125 C 166.699219 295.421875 167.867188 295.71875 169.011719 295.71875 C 171.335938 295.71875 173.605469 294.507812 174.855469 292.347656 L 175.390625 291.421875 C 175.652344 290.96875 175.65625 290.40625 175.398438 289.945312 L 151.144531 246.34375 C 150.878906 245.863281 150.363281 245.566406 149.8125 245.574219 L 149.835938 247.074219" fill="#231f20"/></g><g id="change1_28"><path d="M 146.570312 252.71875 L 174.089844 290.675781 L 173.558594 291.597656 C 172.105469 294.105469 168.898438 294.960938 166.390625 293.511719 L 101.328125 255.898438 C 98.820312 254.449219 97.964844 251.242188 99.414062 248.734375 L 99.945312 247.8125 L 146.570312 252.71875" fill="#fff"/></g><g id="change2_28"><path d="M 146.570312 252.71875 L 145.355469 253.601562 L 172.304688 290.765625 L 172.257812 290.847656 C 171.5625 292.046875 170.308594 292.714844 169.011719 292.71875 C 168.375 292.71875 167.738281 292.558594 167.140625 292.214844 L 102.078125 254.601562 L 102.078125 254.597656 C 100.878906 253.90625 100.210938 252.652344 100.207031 251.355469 C 100.210938 250.71875 100.367188 250.078125 100.710938 249.488281 L 100.710938 249.484375 L 100.757812 249.40625 L 146.410156 254.210938 L 146.570312 252.71875 L 145.355469 253.601562 L 146.570312 252.71875 L 146.726562 251.226562 L 100.101562 246.320312 C 99.511719 246.257812 98.941406 246.550781 98.648438 247.0625 L 98.113281 247.984375 C 97.503906 249.042969 97.207031 250.210938 97.207031 251.355469 C 97.207031 253.679688 98.417969 255.949219 100.578125 257.195312 L 165.640625 294.8125 C 166.699219 295.421875 167.867188 295.71875 169.011719 295.71875 C 171.335938 295.71875 173.605469 294.507812 174.855469 292.347656 L 175.390625 291.421875 C 175.683594 290.910156 175.652344 290.273438 175.304688 289.792969 L 147.785156 251.839844 C 147.535156 251.496094 147.148438 251.273438 146.726562 251.226562 L 146.570312 252.71875" fill="#231f20"/></g><g id="change1_29"><path d="M 123.03125 207.882812 L 197.175781 250.742188 L 193.832031 256.382812 L 141.632812 261.261719 L 119.75 213.554688 L 123.03125 207.882812" fill="#fff"/></g><g id="change2_29"><path d="M 123.03125 207.882812 L 122.28125 209.179688 L 195.109375 251.28125 L 192.929688 254.960938 L 142.550781 259.667969 L 121.4375 213.632812 L 124.328125 208.632812 L 123.03125 207.882812 L 122.28125 209.179688 L 123.03125 207.882812 L 121.734375 207.128906 L 118.449219 212.804688 C 118.207031 213.222656 118.183594 213.738281 118.386719 214.179688 L 140.269531 261.886719 C 140.535156 262.46875 141.136719 262.8125 141.773438 262.753906 L 193.972656 257.875 C 194.449219 257.828125 194.878906 257.5625 195.121094 257.144531 L 198.464844 251.507812 C 198.667969 251.160156 198.726562 250.75 198.625 250.363281 C 198.523438 249.976562 198.273438 249.644531 197.925781 249.445312 L 123.78125 206.582031 C 123.066406 206.167969 122.148438 206.414062 121.734375 207.128906 L 123.03125 207.882812" fill="#231f20"/></g><g id="change1_30"><path d="M 123.03125 207.882812 L 197.175781 250.742188 L 193.832031 256.382812 L 144.839844 255.710938 L 119.75 213.554688 L 123.03125 207.882812" fill="#fff"/></g><g id="change2_30"><path d="M 123.03125 207.882812 L 122.28125 209.179688 L 195.109375 251.28125 L 192.984375 254.871094 L 145.699219 254.222656 L 121.488281 213.542969 L 124.328125 208.632812 L 123.03125 207.882812 L 122.28125 209.179688 L 123.03125 207.882812 L 121.734375 207.128906 L 118.449219 212.804688 C 118.179688 213.273438 118.179688 213.851562 118.460938 214.320312 L 143.550781 256.476562 C 143.816406 256.925781 144.296875 257.203125 144.820312 257.210938 L 193.8125 257.882812 C 194.347656 257.890625 194.847656 257.605469 195.121094 257.144531 L 198.464844 251.507812 C 198.667969 251.160156 198.726562 250.75 198.625 250.363281 C 198.523438 249.976562 198.273438 249.644531 197.925781 249.445312 L 123.78125 206.582031 C 123.066406 206.167969 122.148438 206.414062 121.734375 207.128906 L 123.03125 207.882812" fill="#231f20"/></g></g></svg>