<?xml version="1.0" encoding="UTF-8" standalone="no"?><svg xmlns="http://www.w3.org/2000/svg" xmlns:xlink="http://www.w3.org/1999/xlink" fill="#000000" height="476.2" preserveAspectRatio="xMidYMid meet" version="1" viewBox="0.0 0.0 476.2 476.2" width="476.2" zoomAndPan="magnify"><g id="change1_1"><path d="M238.1,0C106.6,0,0,106.6,0,238.1c0,131.5,106.6,238.1,238.1,238.1c131.5,0,238.1-106.6,238.1-238.1 C476.2,106.6,369.6,0,238.1,0z M238.1,452.4c-118.3,0-214.3-96-214.3-214.3c0-118.4,96-214.3,214.3-214.3 c118.4,0,214.3,95.9,214.3,214.3C452.4,356.4,356.5,452.4,238.1,452.4z" fill="#ffffff"/></g><g id="change2_1"><path d="M335.5,248.5l-73.9,42.6l-73.9,42.6c-9.9,5.7-18,1.1-18-10.4v-85.3v-85.3c0-11.5,8.1-16.1,18-10.4l73.9,42.6 l73.9,42.7C345.5,233.5,345.5,242.8,335.5,248.5z" fill="#f9abaa"/></g></svg>